<svg xmlns="http://www.w3.org/2000/svg" xmlns:xlink="http://www.w3.org/1999/xlink" viewBox="0 0 108.9 22.06"><defs><style>.cls-1{fill:#4ebd94;}.cls-2{fill:url(#linear-gradient);}</style><linearGradient id="linear-gradient" x1="74.72" y1="14.67" x2="108.9" y2="14.67" gradientUnits="userSpaceOnUse"><stop offset="0" stop-color="#fdd900"/><stop offset="0.99" stop-color="#d9a327"/></linearGradient></defs><title>alpha</title><g id="guides"><path class="cls-1" d="M43,10.41a1.21,1.21,0,0,1-.84-.35,2.27,2.27,0,0,0-.12.69,2.12,2.12,0,1,0,2.12-2.12H44a1.22,1.22,0,0,1,.16.57A1.19,1.19,0,0,1,43,10.41Z"/><path class="cls-1" d="M5.35,9.94C4,9.52,2.69,9.24,2.69,8.26,2.69,7.47,3.41,7,4.43,7a4.88,4.88,0,0,1,2.41.7.41.41,0,0,0,.61-.11l.67-1A.37.37,0,0,0,8,6.05a6.91,6.91,0,0,0-3.45-.93C2.34,5.12.4,6.24.4,8.49s1.86,2.81,3.48,3.32c1.3.39,2.43.7,2.43,1.73S5.55,15,4.41,15a5.66,5.66,0,0,1-3-1c-.25-.17-.46-.15-.61.1L.09,15.08a.39.39,0,0,0,.13.61A7.74,7.74,0,0,0,4.4,16.93c2.48,0,4.26-1.25,4.26-3.58S6.93,10.42,5.35,9.94Z"/><path class="cls-1" d="M17.57,5.12A5.13,5.13,0,0,0,14,6.46c-.29.26-.51.19-.51-.21V5.78A.4.4,0,0,0,13,5.34H11.52a.4.4,0,0,0-.44.44V21.62a.4.4,0,0,0,.44.44H13a.4.4,0,0,0,.44-.44V15.8c0-.38.22-.46.51-.19a5.18,5.18,0,0,0,3.59,1.32A5.74,5.74,0,0,0,23.2,11,5.77,5.77,0,0,0,17.57,5.12Zm-.51,9.7A3.71,3.71,0,0,1,13.31,11a3.75,3.75,0,1,1,7.5,0A3.71,3.71,0,0,1,17.06,14.82Z"/><path class="cls-1" d="M47.67,13.43a.4.4,0,0,0-.61.07,3.55,3.55,0,0,1-2.81,1.27A3.67,3.67,0,0,1,40.5,11a3.67,3.67,0,0,1,3.75-3.75,3.58,3.58,0,0,1,2.81,1.27.41.41,0,0,0,.61.08l1.11-.9a.39.39,0,0,0,.07-.62,6.17,6.17,0,0,0-4.59-2,5.93,5.93,0,0,0-5.94,4.61H36.53a5.72,5.72,0,0,0-5.75-4.62,5.91,5.91,0,1,0,0,11.82,5.74,5.74,0,0,0,4.93-2.56c.14-.23.06-.44-.22-.57l-1.13-.47a.45.45,0,0,0-.61.18,3.76,3.76,0,0,1-6.64-1.68c-.07-.29.12-.46.41-.46h1.1a2.11,2.11,0,0,0,4,0H38.2a5.89,5.89,0,0,0,6.06,5.55,6.19,6.19,0,0,0,4.62-2,.39.39,0,0,0-.1-.59ZM27.4,9.23A3.59,3.59,0,0,1,30.79,7a3.5,3.5,0,0,1,3.33,2.22c.13.31,0,.5-.35.5H32.54a2.12,2.12,0,0,0-1.85-1.1h-.13a1.12,1.12,0,0,1,.17.57,1.15,1.15,0,0,1-.14.52H27.77C27.46,9.73,27.28,9.53,27.4,9.23Z"/><path class="cls-1" d="M56.85,5.34H54.92a.39.39,0,0,1-.44-.44V2.63A.4.4,0,0,0,54,2.19H52.53a.4.4,0,0,0-.44.44V4.9a.39.39,0,0,1-.44.44h-1a.4.4,0,0,0-.44.44v1a.4.4,0,0,0,.44.44h1a.4.4,0,0,1,.44.44v5.76a3.12,3.12,0,0,0,3.46,3.33h1.27a.39.39,0,0,0,.44-.44v-1a.39.39,0,0,0-.44-.44H56a1.49,1.49,0,0,1-1.55-1.68V7.62a.4.4,0,0,1,.44-.44h1.93a.4.4,0,0,0,.44-.44v-1A.4.4,0,0,0,56.85,5.34Z"/><path class="cls-1" d="M60.55,0a1.48,1.48,0,0,0-1.5,1.49,1.5,1.5,0,0,0,3,0A1.48,1.48,0,0,0,60.55,0Z"/><path class="cls-1" d="M61.29,5.34h-1.5a.4.4,0,0,0-.44.44V16.27a.4.4,0,0,0,.44.44h1.5a.39.39,0,0,0,.44-.44V5.78A.4.4,0,0,0,61.29,5.34Z"/><path class="cls-1" d="M74.69,5.34H73.08a.5.5,0,0,0-.52.34l-3,7.33c-.15.39-.43.39-.58,0l-3-7.33a.5.5,0,0,0-.51-.34H64c-.34,0-.47.2-.34.5l4.64,10.54a.52.52,0,0,0,.52.33h1.07a.49.49,0,0,0,.51-.33L75,5.84C75.15,5.54,75,5.34,74.69,5.34Z"/><path class="cls-2" d="M74.74,17.26l2.88-8a.26.26,0,0,1,.26-.19h2.19a.26.26,0,0,1,.26.19l2.89,8c.06.16,0,.26-.17.26H81.31a.23.23,0,0,1-.25-.18l-.42-1.25a.23.23,0,0,0-.24-.18H77.56a.23.23,0,0,0-.24.18l-.42,1.25a.23.23,0,0,1-.25.18H74.92C74.76,17.52,74.68,17.42,74.74,17.26Zm5-3.06c.15,0,.22-.1.18-.25l-.8-2.44c-.07-.21-.23-.21-.29,0L78,14a.17.17,0,0,0,.18.25Zm4.58,3.1v-8c0-.15.07-.23.22-.23h1.57a.21.21,0,0,1,.23.23v8c0,.15-.08.22-.23.22H84.55A.19.19,0,0,1,84.33,17.3ZM88,20v-8.1a.2.2,0,0,1,.22-.22h1.57a.2.2,0,0,1,.23.22v0c0,.19.1.23.26.12a2.17,2.17,0,0,1,1.41-.47,2.83,2.83,0,0,1,2.78,3,2.8,2.8,0,0,1-2.78,3,2.2,2.2,0,0,1-1.41-.44c-.16-.13-.26-.1-.26.1V20a.21.21,0,0,1-.23.23H88.24C88.09,20.26,88,20.18,88,20Zm4.45-5.4a1.35,1.35,0,1,0-2.7,0,1.35,1.35,0,1,0,2.7,0ZM95.7,17.3v-8a.21.21,0,0,1,.23-.23h1.58c.15,0,.22.08.22.23v2.83c0,.21.12.24.26.09a2.11,2.11,0,0,1,1.54-.63c1.19,0,1.79.74,1.79,2V17.3a.2.2,0,0,1-.23.22h-1.6a.19.19,0,0,1-.22-.22V14c0-.66-.28-.78-.65-.78-.57,0-.89.31-.89,1v3a.19.19,0,0,1-.22.22H95.93C95.78,17.52,95.7,17.45,95.7,17.3Zm6.72-2.7a2.85,2.85,0,0,1,2.74-3,2.17,2.17,0,0,1,1.44.48c.16.13.28.13.28,0v-.07a.2.2,0,0,1,.22-.22h1.57a.2.2,0,0,1,.23.22V17.3c0,.15-.08.22-.23.22h-1.58c-.15,0-.23-.07-.23-.22s-.08-.27-.19-.17a2.15,2.15,0,0,1-1.51.52A2.85,2.85,0,0,1,102.42,14.6Zm4.73,0a1.36,1.36,0,1,0-2.71,0,1.36,1.36,0,1,0,2.71,0Z"/></g></svg>