<?xml version="1.0" encoding="utf-8"?>
<!-- Generator: Adobe Illustrator 22.0.1, SVG Export Plug-In . SVG Version: 6.00 Build 0)  -->
<svg version="1.1" id="Layer_1" xmlns="http://www.w3.org/2000/svg" xmlns:xlink="http://www.w3.org/1999/xlink" x="0px" y="0px"
	 viewBox="0 0 108.9 22.1" style="enable-background:new 0 0 108.9 22.1;" xml:space="preserve">
<style type="text/css">
	.st0{fill:#FFFFFF;}
	.st1{fill:url(#SVGID_1_);}
</style>
<title>alpha</title>
<g id="guides">
	<path class="st0" d="M43,10.4c-0.3,0-0.6-0.1-0.8-0.4c-0.1,0.2-0.1,0.5-0.1,0.7c0,1.2,0.9,2.1,2.1,2.1c1.2,0,2.1-0.9,2.1-2.1
		s-0.9-2.1-2.1-2.1l0,0H44c0.1,0.2,0.2,0.4,0.2,0.6C44.2,9.9,43.7,10.4,43,10.4z"/>
	<path class="st0" d="M5.3,9.9C4,9.5,2.7,9.2,2.7,8.3C2.7,7.5,3.4,7,4.4,7c0.9,0,1.7,0.3,2.4,0.7C7,7.8,7.3,7.8,7.4,7.6c0,0,0,0,0,0
		l0.7-1C8.2,6.4,8.2,6.2,8,6.1c0,0,0,0,0,0C7,5.4,5.8,5.1,4.6,5.1c-2.2,0-4.2,1.1-4.2,3.4s1.9,2.8,3.5,3.3c1.3,0.4,2.4,0.7,2.4,1.7
		S5.6,15,4.4,15c-1.1,0-2.1-0.4-3-1c-0.2-0.2-0.5-0.1-0.6,0.1l-0.7,1c-0.1,0.2-0.1,0.4,0,0.6c0,0,0.1,0,0.1,0.1
		c1.2,0.8,2.7,1.2,4.2,1.2c2.5,0,4.3-1.2,4.3-3.6S6.9,10.4,5.3,9.9z"/>
	<path class="st0" d="M17.6,5.1c-1.3,0-2.6,0.5-3.6,1.3c-0.3,0.3-0.5,0.2-0.5-0.2V5.8c0-0.2-0.1-0.4-0.3-0.4c0,0-0.1,0-0.1,0h-1.5
		c-0.2,0-0.4,0.1-0.4,0.4c0,0,0,0.1,0,0.1v15.8c0,0.2,0.1,0.4,0.4,0.4c0,0,0.1,0,0.1,0H13c0.2,0,0.4-0.1,0.4-0.4c0,0,0-0.1,0-0.1
		v-5.8c0-0.4,0.2-0.5,0.5-0.2c1,0.9,2.3,1.4,3.6,1.3c3.2,0,5.7-2.6,5.7-5.8c0,0,0-0.1,0-0.1C23.3,7.8,20.7,5.2,17.6,5.1z M17.1,14.8
		c-2,0-3.7-1.6-3.8-3.7c0-0.1,0-0.1,0-0.2c0-2.1,1.7-3.8,3.8-3.8s3.8,1.7,3.8,3.8c0.1,2-1.6,3.8-3.6,3.8
		C17.2,14.8,17.1,14.8,17.1,14.8z"/>
	<path class="st0" d="M47.7,13.4c-0.2-0.2-0.4-0.1-0.6,0c0,0,0,0,0,0.1c-0.7,0.8-1.7,1.3-2.8,1.3c-2,0-3.7-1.6-3.8-3.6
		c0-0.1,0-0.1,0-0.2c0-2,1.6-3.7,3.6-3.8c0.1,0,0.1,0,0.2,0c1.1,0,2.1,0.4,2.8,1.3c0.1,0.2,0.4,0.2,0.6,0.1c0,0,0,0,0,0l1.1-0.9
		C49,7.6,49,7.4,48.9,7.2c0,0,0-0.1-0.1-0.1c-1.2-1.3-2.8-2-4.6-2c-2.8-0.1-5.3,1.9-5.9,4.6h-1.8C36,7,33.6,5,30.8,5.1
		c-3.3,0-5.9,2.6-5.9,5.9s2.6,5.9,5.9,5.9c0,0,0,0,0,0c2,0.1,3.8-0.9,4.9-2.6c0.1-0.2,0.1-0.4-0.2-0.6l-1.1-0.5
		c-0.2-0.1-0.5,0-0.6,0.2c-1.3,1.6-3.7,1.9-5.3,0.6c-0.7-0.6-1.2-1.4-1.4-2.3c-0.1-0.3,0.1-0.5,0.4-0.5h1.1c0.4,1.1,1.6,1.7,2.7,1.3
		c0.6-0.2,1.1-0.7,1.3-1.3h5.6c0.2,3.2,2.9,5.6,6.1,5.6c1.8,0,3.4-0.7,4.6-2c0.1-0.2,0.1-0.4,0-0.5c0,0,0,0-0.1,0L47.7,13.4z
		 M27.4,9.2C28,7.9,29.3,7,30.8,7c1.5,0,2.8,0.9,3.3,2.2c0.1,0.3,0,0.5-0.3,0.5h-1.2c-0.4-0.7-1.1-1.1-1.9-1.1h-0.1
		c0.1,0.2,0.2,0.4,0.2,0.6c0,0.2-0.1,0.4-0.1,0.5h-2.8C27.5,9.7,27.3,9.5,27.4,9.2z"/>
	<path class="st0" d="M56.8,5.3h-1.9c-0.2,0-0.4-0.1-0.4-0.3c0,0,0-0.1,0-0.1V2.6c0-0.2-0.1-0.4-0.3-0.4c0,0-0.1,0-0.1,0h-1.5
		c-0.2,0-0.4,0.1-0.4,0.4c0,0,0,0.1,0,0.1v2.3c0,0.2-0.1,0.4-0.3,0.4c0,0-0.1,0-0.1,0h-1c-0.2,0-0.4,0.1-0.4,0.4c0,0,0,0.1,0,0.1v1
		c0,0.2,0.1,0.4,0.4,0.4c0,0,0.1,0,0.1,0h1c0.2,0,0.4,0.1,0.4,0.4c0,0,0,0.1,0,0.1v5.8c-0.1,1.7,1.2,3.2,2.9,3.3c0.2,0,0.4,0,0.6,0
		h1.3c0.2,0,0.4-0.1,0.4-0.3c0,0,0-0.1,0-0.1v-1c0-0.2-0.1-0.4-0.3-0.4c0,0-0.1,0-0.1,0H56c-0.8,0-1.5-0.6-1.6-1.4
		c0-0.1,0-0.2,0-0.3V7.6c0-0.2,0.1-0.4,0.4-0.4c0,0,0.1,0,0.1,0h1.9c0.2,0,0.4-0.1,0.4-0.4c0,0,0-0.1,0-0.1v-1
		C57.3,5.5,57.1,5.3,56.8,5.3C56.9,5.3,56.9,5.3,56.8,5.3z"/>
	<path class="st0" d="M60.5,0c-0.8,0-1.5,0.6-1.5,1.5c0,0,0,0,0,0C59,2.3,59.7,3,60.5,3S62,2.3,62,1.5C62.1,0.7,61.4,0,60.5,0
		C60.6,0,60.6,0,60.5,0z"/>
	<path class="st0" d="M61.3,5.3h-1.5c-0.2,0-0.4,0.1-0.4,0.4c0,0,0,0.1,0,0.1v10.5c0,0.2,0.1,0.4,0.4,0.4c0,0,0.1,0,0.1,0h1.5
		c0.2,0,0.4-0.1,0.4-0.3c0,0,0-0.1,0-0.1V5.8C61.8,5.6,61.6,5.4,61.3,5.3C61.3,5.3,61.3,5.3,61.3,5.3z"/>
	<path class="st0" d="M74.7,5.3h-1.6c-0.2,0-0.4,0.1-0.5,0.3l-3,7.3c-0.2,0.4-0.4,0.4-0.6,0l-3-7.3c-0.1-0.2-0.3-0.4-0.5-0.3H64
		c-0.3,0-0.5,0.2-0.3,0.5l4.6,10.5c0.1,0.2,0.3,0.3,0.5,0.3h1.1c0.2,0,0.4-0.1,0.5-0.3L75,5.8C75.2,5.5,75,5.3,74.7,5.3z"/>
	
		<linearGradient id="SVGID_1_" gradientUnits="userSpaceOnUse" x1="74.7201" y1="9.3475" x2="108.9013" y2="9.3475" gradientTransform="matrix(1 0 0 -1 0 24)">
		<stop  offset="0" style="stop-color:#FDD900"/>
		<stop  offset="0.99" style="stop-color:#D9A327"/>
	</linearGradient>
	<path class="st1" d="M74.7,17.3l2.9-8c0-0.1,0.1-0.2,0.3-0.2h2.2c0.1,0,0.2,0.1,0.3,0.2l2.9,8c0.1,0.2,0,0.3-0.2,0.3h-1.7
		c-0.1,0-0.2-0.1-0.2-0.2l-0.4-1.2c0-0.1-0.1-0.2-0.2-0.2h-2.8c-0.1,0-0.2,0.1-0.2,0.2l-0.4,1.2c0,0.1-0.1,0.2-0.2,0.2h-1.7
		C74.8,17.5,74.7,17.4,74.7,17.3z M79.7,14.2c0.2,0,0.2-0.1,0.2-0.2l-0.8-2.4c-0.1-0.2-0.2-0.2-0.3,0L78,14c0,0.1,0,0.2,0.1,0.2
		c0,0,0.1,0,0.1,0L79.7,14.2z M84.3,17.3v-8c0-0.1,0.1-0.2,0.2-0.2h1.6c0.1,0,0.2,0.1,0.2,0.2c0,0,0,0,0,0v8c0,0.1-0.1,0.2-0.2,0.2
		h-1.6C84.4,17.5,84.3,17.5,84.3,17.3C84.3,17.3,84.3,17.3,84.3,17.3L84.3,17.3z M88,20v-8.1c0-0.1,0.1-0.2,0.2-0.2c0,0,0,0,0,0h1.6
		c0.1,0,0.2,0.1,0.2,0.2c0,0,0,0,0,0.1l0,0c0,0.2,0.1,0.2,0.3,0.1c0.4-0.3,0.9-0.5,1.4-0.5c1.6,0,2.8,1.3,2.8,2.9c0,0,0,0.1,0,0.1
		c0.1,1.5-1.1,2.9-2.6,3c-0.1,0-0.1,0-0.2,0c-0.5,0-1-0.1-1.4-0.4C90.1,17,90,17,90,17.2V20c0,0.1-0.1,0.2-0.2,0.2c0,0,0,0,0,0h-1.6
		C88.1,20.3,88,20.2,88,20z M92.4,14.6c0-0.7-0.6-1.4-1.3-1.4c-0.7,0-1.4,0.6-1.4,1.3c0,0,0,0,0,0c0,0.7,0.6,1.4,1.3,1.4
		C91.8,16,92.4,15.3,92.4,14.6C92.4,14.6,92.4,14.6,92.4,14.6z M95.7,17.3v-8c0-0.1,0.1-0.2,0.2-0.2c0,0,0,0,0,0h1.6
		c0.2,0,0.2,0.1,0.2,0.2v2.8c0,0.2,0.1,0.2,0.3,0.1c0.4-0.4,1-0.6,1.5-0.6c1.2,0,1.8,0.7,1.8,2v3.7c0,0.1-0.1,0.2-0.2,0.2
		c0,0,0,0-0.1,0h-1.6c-0.1,0-0.2-0.1-0.2-0.2c0,0,0,0,0-0.1V14c0-0.7-0.3-0.8-0.7-0.8c-0.6,0-0.9,0.3-0.9,1v3c0,0.1-0.1,0.2-0.2,0.2
		c0,0,0,0-0.1,0h-1.6C95.8,17.5,95.7,17.5,95.7,17.3z M102.4,14.6c-0.1-1.6,1.1-2.9,2.7-3c0,0,0,0,0,0c0.5,0,1,0.2,1.4,0.5
		c0.2,0.1,0.3,0.1,0.3,0V12c0-0.1,0.1-0.2,0.2-0.2c0,0,0,0,0,0h1.6c0.1,0,0.2,0.1,0.2,0.2c0,0,0,0,0,0.1v5.3c0,0.1-0.1,0.2-0.2,0.2
		h-1.6c-0.2,0-0.2-0.1-0.2-0.2s-0.1-0.3-0.2-0.2c-0.4,0.4-1,0.5-1.5,0.5C103.6,17.6,102.4,16.3,102.4,14.6
		C102.4,14.7,102.4,14.6,102.4,14.6z M107.2,14.6c0.1-0.7-0.5-1.4-1.2-1.5c-0.7-0.1-1.4,0.5-1.5,1.2c0,0.1,0,0.2,0,0.2
		c-0.1,0.7,0.5,1.4,1.2,1.5c0.7,0.1,1.4-0.5,1.5-1.2C107.2,14.8,107.2,14.7,107.2,14.6z"/>
</g>
</svg>
