<svg xmlns="http://www.w3.org/2000/svg" viewBox="0 0 187.68 205.55"><defs><style>.cls-1{fill:#4ebd94;}.cls-2{fill:none;stroke:#888;stroke-miterlimit:10;stroke-width:1.08px;stroke-dasharray:7.57;}</style></defs><title>cloud</title>
    <g id="upload">
    <path class="cls-1" d="M143.44,61.47a39.67,39.67,0,0,0-19.33-1.83C117.81,44.89,105.5,33,91.8,28.41c-9.63-3.21-22.26-.41-33,7.31A49.53,49.53,0,0,0,53,40.65a26.83,26.83,0,0,0-7.51,9.9c-.4.76-.78,1.53-1.11,2.3C36.11,50.51,26,52.91,17,59.35a42,42,0,0,0-3.95,3.23,23,23,0,0,0-2.54,1.59C3.74,69.07,0,77.2,0,87.07c0,19.58,15.21,40.58,33.9,46.81L132,166.55a46.39,46.39,0,0,0,12,2.37,27.78,27.78,0,0,0,6,.69,29.79,29.79,0,0,0,17.55-6c12-8.65,20.08-25.15,20.08-41C187.68,97,167.83,69.6,143.44,61.47Zm18.46,96.38c-7.36,5.31-17.28,6.28-27.94,2.73L105.25,151h0L35.89,127.9c-.63-.21-1.26-.44-1.88-.69l-.53-.22c-.49-.2-1-.42-1.45-.65l-.44-.2q-.9-.44-1.8-.93l-.33-.2q-.75-.42-1.47-.87l-.47-.3c-.54-.34-1.07-.7-1.6-1.07l-.12-.09c-.58-.41-1.14-.84-1.7-1.28l-.36-.29c-.46-.37-.91-.75-1.36-1.14l-.32-.27c-.54-.49-1.08-1-1.6-1.49l0,0c-.5-.49-1-1-1.48-1.52l-.28-.3c-.47-.51-.93-1-1.38-1.57l-.06-.06c-.49-.58-1-1.18-1.43-1.78l-.13-.17c-.41-.55-.82-1.1-1.21-1.67l-.16-.22c-.86-1.25-1.65-2.53-2.39-3.84l-.12-.21c-.35-.64-.69-1.28-1-1.93l0-.05c-.35-.7-.67-1.4-1-2.11h0A39.48,39.48,0,0,1,6.3,87.07c0-7.79,2.81-14.11,7.91-17.79a18.58,18.58,0,0,1,11-3.37A27.43,27.43,0,0,1,33.9,67.4a38.23,38.23,0,0,1,10.32,5.44,3.15,3.15,0,0,0,5-2.93,39.26,39.26,0,0,1-.32-4.83c0-8.87,3.21-16.06,9-20.26s13.85-5,22.42-2.16c12.62,4.2,24.4,15.85,30,29.66a3.15,3.15,0,0,0,3.54,1.9A35,35,0,0,1,132,75.73h0c22.73,7.57,41.22,33.08,41.22,56.87C173.19,143.64,169.18,152.61,161.9,157.85Z">
        
        <animateTransform id="ad"
                          attributeName="transform"
                          attributeType="XML"
                          type="translate"
                          dur="5s"
                          values="0,6;0,-6;0,6"
                          repeatCount="indefinite"/>
        
        </path>
        <path class="cls-1" d="M58.71,104,80.89,89.36c.85-.57,2.23-.1,3.09,1l22.17,29.47c1.38,1.82.41,3.84-1.54,3.19L60.25,108.26C58.31,107.61,57.33,105,58.71,104Zm50.42,23.42-53.4-17.8a.61.61,0,0,0-.87.58v3.17a1.32,1.32,0,0,0,.87,1.16l53.4,17.8a.61.61,0,0,0,.87-.58v-3.17A1.32,1.32,0,0,0,109.13,127.46Z">
        
        <animateTransform id="ad"
                          attributeName="transform"
                          attributeType="XML"
                          type="translate"
                          dur="5s"
                          values="0,6;0,-6;0,6"
                          repeatCount="indefinite"/>
        
        </path>
        <path class="cls-2" d="M111.5,165.7a120,120,0,0,1-31,9.6c-46.82,7.46-76.21-20.78-65.63-63.09S72,29.54,118.82,22.07,195,42.85,184.45,85.16a84.46,84.46,0,0,1-2.89,9.26">
        
        <animateTransform id="ad"
                          attributeName="transform"
                          attributeType="XML"
                          type="translate"
                          dur="5s"
                          values="0,6;0,-6;0,6"
                          repeatCount="indefinite"/>
        
        </path>
    </g>
</svg>