<svg xmlns="http://www.w3.org/2000/svg" viewBox="0 0 32.92 25"><defs><style>.cls-1{fill:#f7f7f7;}</style></defs><title>cloud_white</title><g id="nav"><path class="cls-1" d="M25.16,6a6.91,6.91,0,0,0-3.39-.32A9.84,9.84,0,0,0,16.1.23a6.71,6.71,0,0,0-5.78,1.28,8.65,8.65,0,0,0-1,.87A4.7,4.7,0,0,0,8,4.11c-.07.14-.13.27-.19.41A5.75,5.75,0,0,0,3,5.66c-.25.18-.48.37-.7.56s-.3.18-.44.28a4.78,4.78,0,0,0-1.85,4,9.25,9.25,0,0,0,6,8.21l17.2,5.73a8.22,8.22,0,0,0,2.11.42,4.85,4.85,0,0,0,1.06.12,5.24,5.24,0,0,0,3.08-1.06,9.18,9.18,0,0,0,3.52-7.2A12.08,12.08,0,0,0,25.16,6ZM28.4,22.94a5.33,5.33,0,0,1-4.9.48l-5-1.68h0L6.3,17.68,6,17.56l-.1,0-.25-.11-.08,0-.31-.16-.06,0A2.26,2.26,0,0,1,4.91,17L4.83,17l-.28-.19h0a3.4,3.4,0,0,1-.3-.23l-.07-.05-.23-.2-.06-.05A3.45,3.45,0,0,1,3.59,16h0l-.26-.27,0-.05L3,15.38H3c-.09-.1-.17-.21-.25-.31l0,0-.22-.29,0,0c-.15-.22-.29-.45-.42-.68l0,0c-.07-.12-.12-.23-.18-.34h0c-.06-.12-.11-.25-.17-.37h0a6.9,6.9,0,0,1-.61-2.75A3.7,3.7,0,0,1,2.49,7.4a3.3,3.3,0,0,1,1.94-.59A4.72,4.72,0,0,1,6,7.07,6.57,6.57,0,0,1,7.76,8a.53.53,0,0,0,.6,0,.54.54,0,0,0,.27-.54,6.41,6.41,0,0,1-.06-.85,4.21,4.21,0,0,1,1.59-3.55,4.26,4.26,0,0,1,3.93-.38,9.25,9.25,0,0,1,5.27,5.2.55.55,0,0,0,.62.34,6.15,6.15,0,0,1,3.17.26h0a11.24,11.24,0,0,1,7.23,10A5.24,5.24,0,0,1,28.4,22.94Z"/><path class="cls-1" d="M10.3,13.5l3.89-2.58a.43.43,0,0,1,.54.18l3.89,5.17c.24.32.07.68-.27.56l-7.78-2.59C10.23,14.12,10.06,13.66,10.3,13.5Zm8.84,4.11L9.78,14.48a.11.11,0,0,0-.16.1v.56a.22.22,0,0,0,.16.2l9.36,3.13c.09,0,.16,0,.16-.1v-.56A.21.21,0,0,0,19.14,17.61Z"/></g></svg>