<svg xmlns="http://www.w3.org/2000/svg" viewBox="0 0 340.89 192.19"><defs><style>.cls-1{fill:#888;}.cls-2{fill:#565656;}.cls-3,.cls-7{fill:#ddd;}.cls-4{fill:none;stroke-linecap:round;}.cls-4,.cls-6,.cls-7{stroke:#383838;stroke-miterlimit:10;stroke-width:3px;}.cls-5{fill:#383838;}.cls-6{fill:#b7b7b7;}</style></defs><title>computer only</title><g id="upload"><rect class="cls-1" x="73.37" y="2.59" width="194.15" height="115.14" rx="4.12" ry="4.12"/><path class="cls-2" d="M267.52,115.46V7a4.45,4.45,0,0,0-4.45-4.45h-187A.75.75,0,0,0,75.71,4L265.56,116.57A1.3,1.3,0,0,0,267.52,115.46Z"/><path class="cls-3" d="M73.79,117.32H267.94a0,0,0,0,1,0,0v19.37a5.84,5.84,0,0,1-5.84,5.84H79.64a5.84,5.84,0,0,1-5.84-5.84V117.32A0,0,0,0,1,73.79,117.32Z"/><rect class="cls-4" x="73.37" y="2.59" width="194.15" height="139.94" rx="4.59" ry="4.59"/><line class="cls-4" x1="73.37" y1="117.74" x2="267.52" y2="117.74"/><circle class="cls-5" cx="170.86" cy="129.92" r="2.52"/><rect class="cls-6" x="147.54" y="142.95" width="46.65" height="29.42"/><path class="cls-7" d="M131.94,172.37h77.85a0,0,0,0,1,0,0v9a8.27,8.27,0,0,1-8.27,8.27H140.21a8.27,8.27,0,0,1-8.27-8.27v-9A0,0,0,0,1,131.94,172.37Z"/></g></svg>