<svg xmlns="http://www.w3.org/2000/svg" viewBox="0 0 28.17 43"><defs><style>.cls-1{fill:#4ebd94;}</style></defs><title>description green</title><g id="comments_description" data-name="comments/description"><path class="cls-1" d="M24.92,3.87,11.32.2A5.82,5.82,0,0,0,7,.69,1.92,1.92,0,0,0,6.06,2v.27a6,6,0,0,1,2.6.1L22.25,6c1.65.47,3.07,1.27,3.07,2.83V35.41a10.31,10.31,0,0,1-.44,3.65c3-.26,3.28-2.37,3.29-5.55V6.93C28.17,5.49,27.11,4.49,24.92,3.87Z"/><path class="cls-1" d="M19.76,7.2,6.16,3.54a6.05,6.05,0,0,0-4.52.52,2.49,2.49,0,0,0-.77.74A4.61,4.61,0,0,0,0,7.7V34.79c0,1.55,1.1,2.7,3.27,3.42l8,2.46a45,45,0,0,0,6.69,2h0a5.88,5.88,0,0,0,1.55.27,2,2,0,0,0,1.15-.32C23,42,23.17,39.9,23.18,37.07V10.5C23.18,9,22,7.85,19.76,7.2Zm.67,33.06c0,.75-.13,1.24-.37,1.43s-1.09.08-1.71-.1L3.63,37.08c-2.19-.73-2.44-1.66-2.44-2.29V7.7A3,3,0,0,1,2,5.42a1.4,1.4,0,0,1,1.29,0h0L18,9.7c2.15.61,2.42,1.54,2.42,2.28Z"/><polygon class="cls-1" points="2.26 8.89 18.89 13.88 18.89 15.31 2.26 10.32 2.26 8.89"/><polygon class="cls-1" points="2.26 20.3 18.89 25.29 18.89 26.71 2.26 21.72 2.26 20.3"/><polygon class="cls-1" points="2.26 12.69 18.89 17.68 18.89 19.11 2.26 14.12 2.26 12.69"/><polygon class="cls-1" points="2.26 24.1 18.89 29.09 18.89 30.52 2.26 25.52 2.26 24.1"/><polygon class="cls-1" points="2.26 27.9 18.89 32.89 18.89 34.32 2.26 29.33 2.26 27.9"/><polygon class="cls-1" points="2.26 16.5 2.26 17.92 9.74 20.27 9.74 18.85 2.26 16.5"/><polygon class="cls-1" points="2.26 31.7 2.26 33.13 13.19 36.41 13.19 34.98 2.26 31.7"/></g></svg>