<svg id="management" xmlns="http://www.w3.org/2000/svg" viewBox="0 0 35 25.28"><defs><style>.cls-1{fill:#4ebd94;}</style></defs><title>filter</title><path class="cls-1" d="M33.32,9.81,3.62.06A7.9,7.9,0,0,0,.51.33a.64.64,0,0,0-.24.1A.64.64,0,0,0,0,1V4.45a.64.64,0,0,0,.44.61L6,6.87a6.69,6.69,0,0,0-1.8.5A.64.64,0,0,0,3.6,8v3.49A.64.64,0,0,0,4,12.1l5,1.65a3.68,3.68,0,0,0-1.59.57.87.87,0,0,0-.33.47.63.63,0,0,0,0,.22V18.5a.64.64,0,0,0,.44.61l18.7,6.15a.64.64,0,0,0,.2,0l.15,0h0l.2,0a1.39,1.39,0,0,0,1.11-1.54V20.29a.74.74,0,0,0-.11-.38l1.94.64a.64.64,0,0,0,.48,0l.17,0a1.47,1.47,0,0,0,1-1.49V15.23l1.94.64a.63.63,0,0,0,.47,0,1.39,1.39,0,0,0,.34-.09,1.47,1.47,0,0,0,.85-1.5V12.13A2.44,2.44,0,0,0,33.32,9.81ZM25.8,23.76,16,20.54h0L8.38,18V15.89L25.8,21.61ZM29.29,19,15.82,14.62h0L4.89,11V8.88l24.41,8Zm3.6-4.67L1.28,4V1.84L32.9,12.23Z"/></svg>