<svg id="Layer_1" data-name="Layer 1" xmlns="http://www.w3.org/2000/svg" viewBox="0 0 100.2 100.2"><defs><style>.cls-1{fill:#4ebd94;}.cls-2{fill:#f7f7f7;}</style></defs><title>greencheck</title><circle class="cls-1" cx="50.1" cy="50.1" r="50.1"/><path class="cls-2" d="M44.7,75.1a4.82,4.82,0,0,1-3.2-1.3l-20-20a4.53,4.53,0,1,1,6.4-6.4L44.2,63.7,71.1,26.9a4.51,4.51,0,0,1,7.3,5.3l-30,41A4.42,4.42,0,0,1,45.1,75C45,75.1,44.9,75.1,44.7,75.1Z"/><path class="cls-2" d="M45.11,75.11a4.82,4.82,0,0,1-3.2-1.3l-20-20a4.53,4.53,0,1,1,6.4-6.4l16.3,16.3,26.9-36.8a4.51,4.51,0,0,1,7.3,5.3l-30,41a4.42,4.42,0,0,1-3.3,1.8C45.41,75.11,45.31,75.11,45.11,75.11Z"/></svg>