<svg id="nav" xmlns="http://www.w3.org/2000/svg" viewBox="0 0 32 29.88"><defs><style>.cls-1{fill:#4EBD94;}</style></defs><title>mychannel</title><path class="cls-1" d="M1162.44,171.41l-23.37-7.24c-1.07-.33-4.18.08-5.4,1.35l-0.17.21,0,0.06-0.09.12,0,0.08-0.07.12,0,0.08a2.18,2.18,0,0,0-.08.2v0q0,0.09-.05.19l0,0.08q0,0.08,0,.17V167c0,0.08,0,.17,0,0.25V181a4,4,0,0,0,2.79,3.59l8.86,2.73a1,1,0,0,0,0,.1v3.72a1.26,1.26,0,0,0,.88,1.15l5,1.56h0a1.06,1.06,0,0,0,.31,0H1151l0.19,0a2.09,2.09,0,0,0,1.44-2.08v-2l7.92,2.44a3,3,0,0,0,.89.14l0.33,0h0l0.32-.07h0l0.3-.11h0l0.29-.16h0a3.17,3.17,0,0,0,.55-0.27,3.77,3.77,0,0,0,1.72-3.26V174.68A3.72,3.72,0,0,0,1162.44,171.41Zm-11.78,21.36-4.82-1.49a0.21,0.21,0,0,1-.1-0.1v-3.44l4.82,1.49a0.21,0.21,0,0,1,.1.1v3.44Zm11.91-2.6a1.1,1.1,0,0,1-.41.93,1.44,1.44,0,0,1-1.28.12l-24.76-7.64a3,3,0,0,1-2-2.53V167.21a1.1,1.1,0,0,1,.41-0.93,1.44,1.44,0,0,1,1.28-.12l24.76,7.64a3,3,0,0,1,2,2.53v13.83Z" transform="translate(-1133 -164.06)"/><path class="cls-1" d="M1160.1,176.14a0.94,0.94,0,0,0-1.2.94,1.57,1.57,0,0,0,1.2,1.46,0.94,0.94,0,0,0,1.2-.94A1.57,1.57,0,0,0,1160.1,176.14Z" transform="translate(-1133 -164.06)"/><path class="cls-1" d="M1160.1,180.11a0.94,0.94,0,0,0-1.2.94,1.57,1.57,0,0,0,1.2,1.46,0.94,0.94,0,0,0,1.2-.94A1.57,1.57,0,0,0,1160.1,180.11Z" transform="translate(-1133 -164.06)"/></svg>