<svg id="Layer_1" data-name="Layer 1" xmlns="http://www.w3.org/2000/svg" viewBox="0 0 144.91 149.75"><defs><style>.cls-1{fill:#1a1a1a;}</style></defs><title>sub_black</title><path class="cls-1" d="M124.79,148.89a14.67,14.67,0,0,0,3.12.6,11.84,11.84,0,0,0,2.36.26,11.39,11.39,0,0,0,4.89-1.13c5.65-2.68,9.75-9.73,9.75-16.76V49.22c0-6.2-5.2-12.84-11.58-14.81L25.66.64C19.34-1.47,8.79,1.82,3.58,7.42A10,10,0,0,0,0,15.4V98C0,105,5.55,112.1,12.65,114.28m1.47-4.77C9.18,108,5,102.73,5,98V15.4a5,5,0,0,1,1.86-4.21,6.51,6.51,0,0,1,5.79-.54l112.14,34.6c5,1.53,9.12,6.78,9.12,11.47v82.64a5,5,0,0,1-1.86,4.21,6.46,6.46,0,0,1-5.78.54L83.67,131h0"/><path class="cls-1" d="M64.82,89,55,91.08a2,2,0,0,1-2.13-2.21l1.88-10.39a1.88,1.88,0,0,0-.43-1.43l-8-10.24c-.87-1.12-.39-2.45.82-2.25l11,1.81a1,1,0,0,0,1.11-.47l4.93-8.45c.54-.93,2.1-.45,2.64.81l4.92,11.51a2.24,2.24,0,0,0,1.11,1.14l11,5c1.2.55,1.68,2.18.81,2.76l-8,5.31a1.11,1.11,0,0,0-.42,1.17l1.88,11.55c.2,1.27-1.06,1.79-2.14.89l-9.85-8.23A1.7,1.7,0,0,0,64.82,89Z"/></svg>