<svg id="nav" xmlns="http://www.w3.org/2000/svg" viewBox="0 0 32 33.51"><defs><style>.cls-1{fill:#4EBD94;}</style></defs><title>ic-settings-active</title><path class="cls-1" d="M1164.25,277.89l-2.53-1.13a0.82,0.82,0,0,1-.45-0.48v0a1.88,1.88,0,0,1,0-1,1.59,1.59,0,0,0,.12-0.35,1.8,1.8,0,0,1,.41-0.57l0.52-.48a1.27,1.27,0,0,0,.16-1.7l-3.7-4.95a1.28,1.28,0,0,0-1.55-.39l-1.45.67a0.83,0.83,0,0,1-.86-0.1l-0.62-.46a0.83,0.83,0,0,1-.34-0.59l-0.27-2.56a1.28,1.28,0,0,0-.86-1.07l-4.89-1.65c-0.61-.21-2.7,1.08-3.27,1.7a0.72,0.72,0,0,0-.23.47,1.6,1.6,0,0,0-.12.37l-1.61-1.83a1.28,1.28,0,0,0-1.66-.22l-5.17,3.58a0.37,0.37,0,0,0-.17.21,1.59,1.59,0,0,0-.1,1.85l0.82,1.3a5.25,5.25,0,0,0-3,1.85,1.59,1.59,0,0,0-.39,1v4.76a1.6,1.6,0,0,0,.95,1.46l2.53,1.13a0.5,0.5,0,0,1,.27.29q0.1,0.31.22,0.62a0.51,0.51,0,0,1-.13.56l-1,.92a1.6,1.6,0,0,0-.2,2.14l3.7,4.95a1.61,1.61,0,0,0,2,.49l1.45-.67a0.5,0.5,0,0,1,.52.06l0.63,0.46a0.5,0.5,0,0,1,.2.36l0.27,2.56a1.61,1.61,0,0,0,1.08,1.35l4.89,1.65a1.59,1.59,0,0,0,1.82-.59,6.8,6.8,0,0,0,1.53-2.17l1.74,2a1.61,1.61,0,0,0,2.09.28l2.73-1.81,0.09,0,0.33-.25h0a1.63,1.63,0,0,0,.26-0.22,5.1,5.1,0,0,0,1.79-2.48,1.2,1.2,0,0,0-.23-1l-0.73-1.16,0.14,0a1.62,1.62,0,0,0,1.49,0,3,3,0,0,0,1.63-2.56v-5.43A1.28,1.28,0,0,0,1164.25,277.89Zm-1.65,7.56a0.51,0.51,0,0,1-.62.5l-0.35-.08-0.63-.14-0.45-.1a1.61,1.61,0,0,0-1.8.88,1.59,1.59,0,0,0,.09,1.55l1.37,2.18a0.51,0.51,0,0,1-.15.7l-1.95,1.29-1.21.8a0.51,0.51,0,0,1-.66-0.09l-1.84-2.09-0.12-.12-0.09-.08,0,0-0.13-.08h0l-0.15-.08h0a1.64,1.64,0,0,0-.82-0.14h-0.07a1.61,1.61,0,0,0-1.47,1.41l-0.14,1.25a0.51,0.51,0,0,1-.67.42l-1.13-.38-3.76-1.27a0.51,0.51,0,0,1-.34-0.43l-0.27-2.56a1.59,1.59,0,0,0-.66-1.13l-0.59-.44a1.59,1.59,0,0,0-1.64-.19l-1.45.67a0.51,0.51,0,0,1-.62-0.16l-3.7-4.95a0.51,0.51,0,0,1,.06-0.68l1-.92a1.6,1.6,0,0,0,.42-1.74q-0.11-.29-0.2-0.58a1.59,1.59,0,0,0-.86-0.95l-2.53-1.13a0.51,0.51,0,0,1-.3-0.47v-4.76a0.51,0.51,0,0,1,.62-0.5l1.44,0.33a1.61,1.61,0,0,0,1.71-2.43l-1.37-2.18a0.51,0.51,0,0,1,.15-0.7l0.83-.55,2.33-1.55a0.51,0.51,0,0,1,.66.09l1.84,2.09a1.62,1.62,0,0,0,1.36.53h0.07a1.61,1.61,0,0,0,1.47-1.41l0.11-1,0-.27a0.51,0.51,0,0,1,0-.13h0a0.5,0.5,0,0,1,.63-0.28l4.89,1.65a0.51,0.51,0,0,1,.34.43l0.27,2.56a1.59,1.59,0,0,0,.66,1.13l0.59,0.44a1.59,1.59,0,0,0,1.64.19l1.45-.67a0.51,0.51,0,0,1,.62.16l3.7,4.95a0.51,0.51,0,0,1-.06.68l-1,.92a1.6,1.6,0,0,0-.42,1.74q0.11,0.29.2,0.58a1.59,1.59,0,0,0,.86.95l2.53,1.13a0.51,0.51,0,0,1,.3.47v4.76Z" transform="translate(-1133 -261.01)"/><path class="cls-1" d="M1148.52,271.12a5.93,5.93,0,0,0-5.4.53,5.3,5.3,0,0,0-2.08,4.47c0,3.95,3.2,8.24,7.14,9.56a7.31,7.31,0,0,0,2.33.4,5.21,5.21,0,0,0,3.07-.93l0.31-.24,0.08-.07,0.25-.24,0,0,0.26-.3,0,0,0.22-.3,0,0a5,5,0,0,0,.4-0.76v0a5.58,5.58,0,0,0,.28-0.87h0a6.63,6.63,0,0,0,.18-1.55C1155.66,276.74,1152.45,272.45,1148.52,271.12Zm-0.35,1c3.53,1.19,6.39,5,6.39,8.53a4.69,4.69,0,0,1-.78,2.73,5.62,5.62,0,0,1-3.73-.09c-3.65-1.23-6.62-5.2-6.62-8.84a2.28,2.28,0,0,1,1.31-2.45,4.44,4.44,0,0,1,1.43-.23A6.27,6.27,0,0,1,1148.17,272.15Z" transform="translate(-1133 -261.01)"/></svg>