<svg xmlns="http://www.w3.org/2000/svg" viewBox="0 0 32 33.07"><defs><style>.cls-1{fill:#4ebd94;}</style></defs><title>subs green</title><g id="comments_description" data-name="comments/description"><path class="cls-1" d="M27.56,32.88a3.39,3.39,0,0,0,.68.13,2.39,2.39,0,0,0,.53.06,2.62,2.62,0,0,0,1.08-.25A4.21,4.21,0,0,0,32,29.12V10.87A3.72,3.72,0,0,0,29.44,7.6L5.67.14A5.43,5.43,0,0,0,.79,1.64,2.19,2.19,0,0,0,0,3.4V21.65a4,4,0,0,0,2.79,3.59m.33-1.06a3,3,0,0,1-2-2.53V3.4a1.1,1.1,0,0,1,.42-.93,1.43,1.43,0,0,1,1.27-.12L27.56,10a3,3,0,0,1,2,2.53V30.77a1.08,1.08,0,0,1-.41.93,1.42,1.42,0,0,1-1.28.12l-9.4-2.9h0"/><path class="cls-1" d="M14.31,19.64l-2.17.47a.44.44,0,0,1-.47-.49l.41-2.29A.4.4,0,0,0,12,17l-1.76-2.26c-.19-.24-.09-.54.18-.49l2.43.39a.23.23,0,0,0,.25-.1l1.08-1.86c.12-.21.47-.1.59.18l1.08,2.54a.51.51,0,0,0,.25.25l2.43,1.11c.27.12.37.48.18.61l-1.76,1.17a.23.23,0,0,0-.09.25l.41,2.56c0,.28-.23.39-.47.19l-2.17-1.81A.39.39,0,0,0,14.31,19.64Z"/></g></svg>