<svg id="nav" xmlns="http://www.w3.org/2000/svg" viewBox="0 0 32 26.46"><defs><style>.cls-1{fill:#383838;}</style></defs><title>ic-video-manager</title><path class="cls-1" d="M1163.84,223.56l-6.91-.6a0.52,0.52,0,0,1-.48-0.52v-1.33a3,3,0,0,0-2-2.64l-15.78-4.66c-1.64-.6-3.74.42-4.74,1.43l-0.18.12a1.87,1.87,0,0,0-.73,1.55v14.44a3.24,3.24,0,0,0,2.24,2.93l17,5.1a2,2,0,0,0,1.81-.25,1.87,1.87,0,0,0,.73-1.55v-1.17l6.83,3.51a1.38,1.38,0,0,0,.65.17,1.11,1.11,0,0,0,.45-0.1,2.28,2.28,0,0,0,.41-0.05c0.45-.11,1.93-0.64,1.93-3V224.83A1.33,1.33,0,0,0,1163.84,223.56ZM1162.26,239a0.12,0.12,0,0,1,0,.08,0.28,0.28,0,0,1-.22,0l-7.57-3.89a0.51,0.51,0,0,0-.74.45v2a0.88,0.88,0,0,1-.32.74,1,1,0,0,1-.91.09l-17-5.1a2.24,2.24,0,0,1-1.52-2V216.91a0.88,0.88,0,0,1,.32-0.74,1,1,0,0,1,.91-0.09l17,5.1a2.24,2.24,0,0,1,1.52,2v2a0.51,0.51,0,0,0,.46.5l7.57,0.66h0a0.64,0.64,0,0,1,.5.56V239Z" transform="translate(-1133 -213.63)"/><path class="cls-1" d="M1137.46,219.72a0.86,0.86,0,0,0-1.1.86,1.44,1.44,0,0,0,1.1,1.34,0.86,0.86,0,0,0,1.1-.86A1.44,1.44,0,0,0,1137.46,219.72Z" transform="translate(-1133 -213.63)"/></svg>