<svg xmlns="http://www.w3.org/2000/svg" viewBox="0 0 26 31.61"><defs><style>.cls-1{fill:#4ebd94;}</style></defs><title>live green</title><g id="comments_description" data-name="comments/description"><path class="cls-1" d="M25,5.75,5.17,0h0A7.31,7.31,0,0,0,1.09.9a1.58,1.58,0,0,0-.42.23A1.65,1.65,0,0,0,0,2.47V23.78A1.7,1.7,0,0,0,1.22,25.4l21.4,6.14a1.47,1.47,0,0,0,.46.07,1.67,1.67,0,0,0,.59-.11,1.46,1.46,0,0,0,.38-.14,4.6,4.6,0,0,0,1.95-3V7.06A1.36,1.36,0,0,0,25,5.75ZM23.64,29.93a.55.55,0,0,1-.71.53l-8.86-2.54h0L1.53,24.32a.57.57,0,0,1-.41-.54V2.47A.55.55,0,0,1,1.35,2a.54.54,0,0,1,.49-.09L23.23,8.08a.57.57,0,0,1,.41.54Z"/><path class="cls-1" d="M12.56,11.74a3.92,3.92,0,0,0-3.36.72,3.52,3.52,0,0,0-.95,1.18,4.72,4.72,0,0,1,3.4-.82,5,5,0,0,1,3.83,4.36A5.19,5.19,0,0,1,14.33,21a3.66,3.66,0,0,0,1.41-.7,3.8,3.8,0,0,0,1.38-3A5.89,5.89,0,0,0,12.56,11.74Z"/><path class="cls-1" d="M10.89,13.74a3.86,3.86,0,0,0-3,.69,3.41,3.41,0,0,0-.57.36,3.21,3.21,0,0,0-1.15,2.55,4.93,4.93,0,0,0,3.75,4.58,4,4,0,0,0,.83.09,3.15,3.15,0,0,0,2-.68l.19-.17.11-.08A3.77,3.77,0,0,0,14.38,18,4.58,4.58,0,0,0,10.89,13.74Zm1.19,6.71a2.21,2.21,0,0,1-1.9.37,3.75,3.75,0,0,1-2.87-3.48A2.1,2.1,0,0,1,8,15.67a2.05,2.05,0,0,1,1.31-.44,3.06,3.06,0,0,1,.59.07,3.75,3.75,0,0,1,2.87,3.48A2.08,2.08,0,0,1,12.08,20.45Z"/><path class="cls-1" d="M4.21,5.15A1,1,0,0,0,3,6.1,1.61,1.61,0,0,0,4.21,7.59a1,1,0,0,0,1.22-1A1.58,1.58,0,0,0,4.21,5.15Z"/></g></svg>