<?xml version="1.0" encoding="utf-8"?>
<!-- Generator: Adobe Illustrator 21.1.0, SVG Export Plug-In . SVG Version: 6.00 Build 0)  -->
<svg version="1.1" id="Layer_1" xmlns="http://www.w3.org/2000/svg" xmlns:xlink="http://www.w3.org/1999/xlink" x="0px" y="0px"
	 viewBox="0 0 251.1 218" style="enable-background:new 0 0 251.1 218;" xml:space="preserve">
<style type="text/css">
	.st0{fill:#F7F7F7;stroke:#DDDDDD;stroke-width:2;stroke-miterlimit:10;}
	.st1{fill:#DDDDDD;}
	.st2{fill:#F7F7F7;}
	.st3{fill:#4EBD94;}
	.st4{fill:none;stroke:#B7B7B7;stroke-miterlimit:10;}
	.st5{fill:#EDECED;stroke:#939598;stroke-width:1.3;stroke-miterlimit:10;}
	.st6{fill:#EDECED;}
	.st7{fill:none;stroke:#939598;stroke-width:3;stroke-linecap:round;stroke-linejoin:round;stroke-miterlimit:10;}
	.st8{fill:none;stroke:#898989;stroke-width:0.8381;stroke-miterlimit:10;}
	.st9{fill:none;stroke:#4EBD94;stroke-width:1.3979;stroke-linecap:round;stroke-linejoin:round;stroke-miterlimit:10;}
	.st10{fill:#FFFFFF;stroke:#898989;stroke-width:1.7698;stroke-linecap:round;stroke-linejoin:round;stroke-miterlimit:10;}
	.st11{fill:#222323;}
	.st12{fill:#383838;}
	.st13{fill:#898989;}
	.st14{fill:none;stroke:#939598;stroke-width:3;stroke-linecap:round;stroke-linejoin:round;}
	.st15{fill:none;stroke:#939598;stroke-width:3;stroke-linecap:round;stroke-linejoin:round;stroke-dasharray:12.0023,12.0023;}
	.st16{fill:#A8D8BB;stroke:#212323;stroke-width:0.456;stroke-miterlimit:10;}
	.st17{clip-path:url(#SVGID_2_);}
	.st18{fill:url(#SVGID_3_);stroke:#388E6C;stroke-width:0.6665;stroke-miterlimit:10;}
	.st19{fill:url(#SVGID_4_);stroke:#388E6C;stroke-width:0.6665;stroke-miterlimit:10;}
	.st20{fill:url(#SVGID_5_);stroke:#388E6C;stroke-width:0.6665;stroke-miterlimit:10;}
	.st21{fill:url(#SVGID_6_);stroke:#388E6C;stroke-width:0.6665;stroke-miterlimit:10;}
	.st22{fill:url(#SVGID_7_);stroke:#388E6C;stroke-width:0.6665;stroke-miterlimit:10;}
	.st23{fill:url(#SVGID_8_);stroke:#388E6C;stroke-width:0.6665;stroke-miterlimit:10;}
	.st24{fill:url(#SVGID_9_);stroke:#388E6C;stroke-width:0.6665;stroke-miterlimit:10;}
	.st25{fill:url(#SVGID_10_);stroke:#388E6C;stroke-width:0.6665;stroke-miterlimit:10;}
	.st26{fill:url(#SVGID_11_);stroke:#388E6C;stroke-width:0.6665;stroke-miterlimit:10;}
	.st27{fill:url(#SVGID_12_);stroke:#388E6C;stroke-width:0.6665;stroke-miterlimit:10;}
	.st28{fill:url(#SVGID_13_);stroke:#388E6C;stroke-width:0.6665;stroke-miterlimit:10;}
	.st29{fill:url(#SVGID_14_);stroke:#388E6C;stroke-width:0.6665;stroke-miterlimit:10;}
	.st30{fill:url(#SVGID_15_);stroke:#388E6C;stroke-width:0.6665;stroke-miterlimit:10;}
	.st31{fill:url(#SVGID_16_);stroke:#388E6C;stroke-width:0.6665;stroke-miterlimit:10;}
	.st32{fill:url(#SVGID_17_);stroke:#388E6C;stroke-width:0.6665;stroke-miterlimit:10;}
	.st33{fill:url(#SVGID_18_);stroke:#388E6C;stroke-width:0.6665;stroke-miterlimit:10;}
	.st34{fill:url(#SVGID_19_);stroke:#388E6C;stroke-width:0.6665;stroke-miterlimit:10;}
	.st35{fill:url(#SVGID_20_);stroke:#388E6C;stroke-width:0.6665;stroke-miterlimit:10;}
	.st36{fill:url(#SVGID_21_);stroke:#388E6C;stroke-width:0.456;stroke-miterlimit:10;}
	.st37{fill:url(#SVGID_22_);}
	.st38{fill:#286149;}
	.st39{fill:none;stroke:#286149;stroke-width:2.8789;stroke-linecap:round;stroke-miterlimit:10;}
	.st40{fill:#4EBD94;stroke:#939598;stroke-width:3;stroke-linecap:round;stroke-linejoin:round;stroke-miterlimit:10;}
	.st41{fill:#FFFFFF;}
	.st42{fill:#D1D1D1;}
	.st43{fill:none;stroke:#939598;stroke-width:1.3279;stroke-miterlimit:10;}
	.st44{fill:#B4D5C6;}
	.st45{fill:#7DC9A9;}
	.st46{fill:none;stroke:#4EBD94;stroke-width:1.3279;stroke-miterlimit:10;}
	.st47{fill:#FFFFFF;stroke:#898989;stroke-width:1.4554;stroke-linecap:round;stroke-linejoin:round;stroke-miterlimit:10;}
	.st48{fill:none;stroke:#898989;stroke-miterlimit:10;}
	.st49{fill:#347C5F;}
	.st50{fill:none;stroke:#4EBD94;stroke-width:3;stroke-linecap:round;stroke-linejoin:round;stroke-miterlimit:10;}
	
		.st51{fill:none;stroke:#4EBD94;stroke-width:2.0058;stroke-linecap:round;stroke-linejoin:round;stroke-miterlimit:10;stroke-dasharray:7.5723;}
	.st52{fill:#FFFFFF;stroke:#939598;stroke-width:3;stroke-linecap:round;stroke-linejoin:round;stroke-miterlimit:10;}
	.st53{fill:none;stroke:#4EBD94;stroke-width:1.7378;stroke-linecap:round;stroke-linejoin:round;stroke-miterlimit:10;}
	.st54{fill:none;stroke:#4EBD94;stroke-width:2.0058;stroke-linecap:round;stroke-linejoin:round;stroke-miterlimit:10;}
	.st55{fill:none;stroke:#898989;stroke-linecap:round;stroke-linejoin:round;stroke-miterlimit:10;}
	.st56{fill:none;stroke:#4EBD94;stroke-linecap:round;stroke-linejoin:round;stroke-miterlimit:10;}
	.st57{fill:#EDECED;stroke:#898989;stroke-miterlimit:10;}
	.st58{fill:#4EBD94;stroke:#898989;stroke-linecap:round;stroke-linejoin:round;stroke-miterlimit:10;}
	.st59{fill:#EDECED;stroke:#898989;stroke-linejoin:round;stroke-miterlimit:10;}
	.st60{fill:#F7F7F7;stroke:#939598;stroke-width:3;stroke-linecap:round;stroke-linejoin:round;stroke-miterlimit:10;}
	.st61{fill:#358666;stroke:#939598;stroke-width:3;stroke-linecap:round;stroke-linejoin:round;stroke-miterlimit:10;}
	.st62{fill:#CCCCCC;}
	.st63{fill:none;stroke:#4EBD94;stroke-width:3;stroke-miterlimit:10;}
	.st64{fill:#358666;}
	.st65{fill:none;stroke:#4EBD94;stroke-width:2;stroke-linecap:round;stroke-linejoin:round;stroke-miterlimit:10;}
	.st66{fill:none;stroke:#4EBD94;stroke-width:3;stroke-linejoin:round;stroke-miterlimit:10;}
	.st67{fill:#F7F7F7;stroke:#4EBD94;stroke-width:3;stroke-linejoin:round;stroke-miterlimit:10;}
	.st68{fill:#F7F7F7;stroke:#565656;stroke-width:2;stroke-linecap:round;stroke-linejoin:round;stroke-miterlimit:10;}
	.st69{fill:#DDDDDD;stroke:#B7B7B7;stroke-width:2;stroke-miterlimit:10;}
</style>
<g>
	<path class="st3" d="M69.1,144.5h-54v-57c9.4-13.3,26.8-20.4,54-20V144.5z"/>
	<path class="st64" d="M69.1,144.5h-54v-33c9.4-13.3,26.8-20.4,54-20V144.5z"/>
	<path class="st3" d="M182.1,144.5h54v-57c-9.4-13.3-26.8-20.4-54-20V144.5z"/>
	<path class="st64" d="M182.1,144.5h54v-33c-9.4-13.3-26.8-20.4-54-20V144.5z"/>
	<path class="st7" d="M69.1,144.5h-54v-57c9.4-13.3,26.8-20.4,54-20V144.5z"/>
	<path class="st7" d="M182.1,144.5h54v-57c-9.4-13.3-26.8-20.4-54-20V144.5z"/>
	<path class="st2" d="M236.1,173.5c0,35.3-221,35.3-221,0v-86c0,37.8,221,37.8,221,0V173.5z"/>
	<path class="st1" d="M236.1,132.5c0,35.3-221,35.3-221,0v-45c0,37.8,221,37.8,221,0V132.5z"/>
	<path class="st7" d="M236.1,173.5c0,35.3-221,35.3-221,0v-86c0,37.8,221,37.8,221,0V173.5z"/>
	<g>
		<g>
			<path class="st41" d="M150.6,158.8c0,0-11.2,15.6-25,15.6s-25-15.6-25-15.6s11.2-15.6,25-15.6S150.6,158.8,150.6,158.8z"/>
			<path class="st6" d="M150.6,158.8h-50c0,0,12-15.6,25-15.6S150.6,158.8,150.6,158.8z"/>
			<path class="st53" d="M150.6,158.8c0,0-11.2,15.6-25,15.6s-25-15.6-25-15.6s11.2-15.6,25-15.6S150.6,158.8,150.6,158.8z"/>
			<path class="st3" d="M125.6,149.5c-0.2,0-0.3,0-0.5,0c0.4,0.7,0.7,1.6,0.7,2.5c0,2.9-2.3,5.2-5.2,5.2c-1.4,0-2.7-0.6-3.7-1.5
				c-0.3,0.9-0.5,2-0.5,3c0,5.1,4.1,9.2,9.2,9.2s9.2-4.1,9.2-9.2C134.8,153.7,130.7,149.5,125.6,149.5z"/>
			<path class="st49" d="M134.8,158.8c0-5.1-4.1-9.2-9.2-9.2c-0.2,0-0.3,0-0.5,0c0.4,0.7,0.7,1.6,0.7,2.5c0,2.9-2.3,5.2-5.2,5.2
				c-1.4,0-2.7-0.6-3.7-1.5c-0.3,0.9-0.5,2-0.5,3l0,0H134.8L134.8,158.8z"/>
		</g>
		<line class="st55" x1="146.6" y1="158.8" x2="143.8" y2="158.8"/>
		<line class="st55" x1="142.1" y1="158.8" x2="141.3" y2="158.8"/>
		<line class="st55" x1="104.9" y1="158.8" x2="107.7" y2="158.8"/>
		<line class="st55" x1="109.3" y1="158.8" x2="110.1" y2="158.8"/>
	</g>
	<path class="st65" d="M186.1,128.8c15.4-2.3,28.7-5.6,37.8-10"/>
	<path class="st65" d="M68.9,128.8c-15.4-2.3-28.7-5.6-37.8-10"/>
	<path class="st65" d="M186.1,181.8c15.4-2.3,28.7-5.6,37.8-10"/>
	<path class="st65" d="M215.6,148.1c3-1,5.8-2.1,8.3-3.3"/>
	<path class="st65" d="M186.1,154.8c3.2-0.5,6.2-1,9.2-1.5"/>
	<g>
		<path class="st65" d="M39.3,150.1c-3-1-5.8-2.1-8.3-3.3"/>
		<path class="st65" d="M68.9,155.8c-3.2-0.5-6.2-1-9.2-1.5"/>
	</g>
	<path class="st65" d="M68.9,181.8c-15.4-2.3-28.7-5.6-37.8-10"/>
	<line class="st50" x1="125.6" y1="72" x2="125.6" y2="94"/>
	<line class="st50" x1="125.6" y1="105" x2="125.6" y2="110"/>
	<path class="st66" d="M140.7,46.8h-30.3V33.1c0-8.4,6.8-15.1,15.1-15.1h0c8.4,0,15.1,6.8,15.1,15.1V46.8z"/>
	<rect x="110.4" y="31.7" class="st67" width="30.3" height="28.8"/>
	<circle class="st66" cx="125.6" cy="43.9" r="2.9"/>
	<line class="st66" x1="125.6" y1="46.8" x2="125.6" y2="54"/>
</g>
</svg>
