<svg id="Layer_1" data-name="Layer 1" xmlns="http://www.w3.org/2000/svg" viewBox="0 0 404 227.25"><defs><style>.cls-1{fill:#4ebd94;}.cls-2{fill:#fff;}.cls-3{fill:#ebebec;}.cls-4,.cls-5{fill:none;stroke-miterlimit:10;}.cls-4{stroke:#4ebd94;stroke-width:3px;}.cls-5{stroke:#898989;stroke-width:3.13px;}</style></defs><title>Artboard 2</title><rect class="cls-1" width="404" height="227.25"/><rect class="cls-2" x="137.98" y="69.83" width="140.95" height="87.59" rx="15.63" ry="15.63"/><path class="cls-3" d="M268.83,151.15,148.27,76.23a3.46,3.46,0,0,1,1.82-6.4H263.63a15.29,15.29,0,0,1,15.29,15.29v60.42A6.61,6.61,0,0,1,268.83,151.15Z"/><rect class="cls-4" x="137.98" y="69.83" width="140.95" height="87.59" rx="15.63" ry="15.63"/><path class="cls-1" d="M200.05,125.06V102.19a2.27,2.27,0,0,1,3.47-1.94L222,111.69a2.27,2.27,0,0,1,0,3.87L203.52,127A2.27,2.27,0,0,1,200.05,125.06Z"/><line class="cls-5" x1="252.98" y1="87.74" x2="266.64" y2="87.74"/><line class="cls-5" x1="252.98" y1="100.68" x2="266.64" y2="100.68"/><line class="cls-5" x1="252.98" y1="113.63" x2="266.64" y2="113.63"/><line class="cls-5" x1="252.98" y1="126.57" x2="266.64" y2="126.57"/><line class="cls-5" x1="252.98" y1="139.51" x2="266.64" y2="139.51"/><line class="cls-5" x1="151.38" y1="87.74" x2="165.03" y2="87.74"/><line class="cls-5" x1="151.38" y1="100.68" x2="165.03" y2="100.68"/><line class="cls-5" x1="151.38" y1="113.63" x2="165.03" y2="113.63"/><line class="cls-5" x1="151.38" y1="126.57" x2="165.03" y2="126.57"/><line class="cls-5" x1="151.38" y1="139.51" x2="165.03" y2="139.51"/></svg>