<?xml version="1.0" encoding="utf-8"?>
<!-- Generator: Adobe Illustrator 22.0.0, SVG Export Plug-In . SVG Version: 6.00 Build 0)  -->
<svg version="1.1" id="Layer_1" xmlns="http://www.w3.org/2000/svg" xmlns:xlink="http://www.w3.org/1999/xlink" x="0px" y="0px"
	 viewBox="0 0 315 256.714" style="enable-background:new 0 0 315 256.714;" xml:space="preserve">
<style type="text/css">
	.st0{opacity:0.21;fill:#E1E1E1;}
	.st1{fill:#F8F8F8;stroke:#949494;stroke-width:3;stroke-linecap:round;stroke-linejoin:round;stroke-miterlimit:10;}
	.st2{fill:none;stroke:#E1E1E1;stroke-width:2;stroke-linecap:round;stroke-miterlimit:10;stroke-dasharray:9.7654,9.7654;}
	.st3{fill:#F8F8F8;}
	.st4{fill:#FFFFFF;}
	.st5{fill:none;stroke:#58C59E;stroke-width:3;stroke-miterlimit:10;}
	.st6{fill:#58C59E;}
	.st7{fill:none;stroke:#949494;stroke-width:3;stroke-miterlimit:10;}
	.st8{fill:none;stroke:#58C59E;stroke-width:2;stroke-linecap:round;stroke-linejoin:round;stroke-miterlimit:10;}
	.st9{fill:none;stroke:#E1E1E1;stroke-width:2;stroke-linecap:round;stroke-miterlimit:10;}
</style>
<g>
	<circle class="st0" cx="157.643" cy="128.357" r="128.357"/>
	<circle class="st1" cx="157.643" cy="128.357" r="72.287"/>
	<g>
		<circle class="st2" cx="157.643" cy="128.357" r="96.357"/>
	</g>
	<path class="st3" d="M220.015,178.681H93.985c-9.922,0-17.966-8.044-17.966-17.966V95.999c0-9.922,8.044-17.966,17.966-17.966
		h126.03c9.922,0,17.966,8.044,17.966,17.966v64.717C237.981,170.638,229.937,178.681,220.015,178.681z"/>
	<path class="st4" d="M226.383,171.474L87.846,85.382c-3.396-2.11-1.9-7.349,2.098-7.349h130.468c9.704,0,17.57,7.866,17.57,17.57
		v69.423C237.981,170.98,231.44,174.616,226.383,171.474z"/>
	<path class="st5" d="M220.015,178.681H93.985c-9.922,0-17.966-8.044-17.966-17.966V95.999c0-9.922,8.044-17.966,17.966-17.966
		h126.03c9.922,0,17.966,8.044,17.966,17.966v64.717C237.981,170.638,229.937,178.681,220.015,178.681z"/>
	<path class="st6" d="M147.349,141.501v-26.289c0-2.048,2.248-3.301,3.99-2.224l21.259,13.144c1.653,1.022,1.653,3.426,0,4.448
		l-21.259,13.144C149.597,144.803,147.349,143.55,147.349,141.501z"/>
	<g>
		<line class="st7" x1="208.174" y1="98.608" x2="223.866" y2="98.608"/>
		<line class="st7" x1="208.174" y1="113.482" x2="223.866" y2="113.482"/>
		<line class="st7" x1="208.174" y1="128.357" x2="223.866" y2="128.357"/>
		<line class="st7" x1="208.174" y1="143.232" x2="223.866" y2="143.232"/>
		<line class="st7" x1="208.174" y1="158.107" x2="223.866" y2="158.107"/>
	</g>
	<g>
		<line class="st7" x1="91.418" y1="98.608" x2="107.111" y2="98.608"/>
		<line class="st7" x1="91.418" y1="113.482" x2="107.111" y2="113.482"/>
		<line class="st7" x1="91.418" y1="128.357" x2="107.111" y2="128.357"/>
		<line class="st7" x1="91.418" y1="143.232" x2="107.111" y2="143.232"/>
		<line class="st7" x1="91.418" y1="158.107" x2="107.111" y2="158.107"/>
	</g>
	<g>
		<path class="st8" d="M107,78.357"/>
		<polyline class="st8" points="107,31.857 60.5,31.857 60.5,78.357 		"/>
		<path class="st8" d="M207,78.357"/>
		<polyline class="st8" points="253.5,78.357 253.5,31.857 207,31.857 		"/>
		<path class="st8" d="M207,178.357"/>
		<polyline class="st8" points="207,224.857 253.5,224.857 253.5,178.357 		"/>
		<path class="st8" d="M107,178.357"/>
		<polyline class="st8" points="60.5,178.357 60.5,224.857 107,224.857 		"/>
	</g>
	<line class="st9" x1="51" y1="128.813" x2="44" y2="128.813"/>
	<line class="st9" x1="36" y1="128.813" x2="29" y2="128.813"/>
	<line class="st9" x1="21" y1="128.813" x2="1" y2="128.813"/>
	<line class="st9" x1="264" y1="128.813" x2="271" y2="128.813"/>
	<line class="st9" x1="279" y1="128.813" x2="286" y2="128.813"/>
	<line class="st9" x1="294" y1="128.813" x2="314" y2="128.813"/>
</g>
</svg>
