<svg xmlns="http://www.w3.org/2000/svg" viewBox="0 0 32 34.13"><defs><style>.cls-1{fill:#4ebd94;}</style></defs><title>recommended green</title><g id="comments_description" data-name="comments/description"><path class="cls-1" d="M31.68,5.46,30.17,3.83l0,0a1.56,1.56,0,0,0-1.29-.39,2.27,2.27,0,0,0-1,.43,1.6,1.6,0,0,0-.4.28L25.75,5.85,5.59.05h0A8,8,0,0,0,1.18,1a1.88,1.88,0,0,0-.46.25A1.78,1.78,0,0,0,0,2.67v23a1.82,1.82,0,0,0,1.32,1.74l23.1,6.64a1.79,1.79,0,0,0,.51.07,1.94,1.94,0,0,0,.63-.11,2.31,2.31,0,0,0,.41-.16,5,5,0,0,0,2.11-3.26v-20L30.4,8.22l.79-.73.06,0A2,2,0,0,0,32,6.2,1,1,0,0,0,31.68,5.46ZM25.53,32.32a.61.61,0,0,1-.24.48.63.63,0,0,1-.53.1l-9.57-2.75h0L1.65,26.26a.62.62,0,0,1-.44-.58v-23A.61.61,0,0,1,2,2.09L23.4,8.24l-8.85,9L8.47,9.35c-.63-.79-1.85-.32-2.25-.1a1.54,1.54,0,0,0-.34.17L5,10.08a1.49,1.49,0,0,0-.62,1,1.76,1.76,0,0,0,.36,1.33L13,23.15a1.78,1.78,0,0,0,1.38.71,1.48,1.48,0,0,0,1.08-.45L25.53,13.17ZM30.05,6.85l-2,2h0l-2.55,2.59h0l-11,11.12a.29.29,0,0,1-.22.08.56.56,0,0,1-.42-.23L5.65,11.67a.41.41,0,0,1,0-.6l.93-.66a.35.35,0,0,1,.18-.05.56.56,0,0,1,.42.24L13.69,19a.55.55,0,0,0,.43.24.32.32,0,0,0,.21-.08L24.72,8.62h0l1.94-2L28.31,5a.27.27,0,0,1,.21-.09.54.54,0,0,1,.38.19L30,6.23A.46.46,0,0,1,30.05,6.85Z"/></g></svg>