<svg id="management" xmlns="http://www.w3.org/2000/svg" viewBox="0 0 32.88 31.47"><defs><style>.cls-1{fill:#4ebd94;}</style></defs><title>report icon</title><path class="cls-1" d="M32.83,15.24h0C32.16,8.07,26,1.62,18.46.25A16.38,16.38,0,0,0,6,3.18,14.39,14.39,0,0,0,3.94,5.07,12.54,12.54,0,0,0,0,14.43c0,9.08,8.34,17,17.84,17a13.6,13.6,0,0,0,10.24-4.29l.21-.24c.27-.26.54-.52.8-.8A14.2,14.2,0,0,0,32.83,15.24Zm-6,10.83a12,12,0,0,1-9,3.75c-8.63,0-16.19-7.19-16.19-15.39A10.9,10.9,0,0,1,5.5,5.89a12.45,12.45,0,0,1,8-2.76,15.91,15.91,0,0,1,2.72.25c7,1.29,12.8,7.29,13.42,14A11.21,11.21,0,0,1,26.86,26.07Z"/><polygon class="cls-1" points="13.93 21.49 15.78 22.15 15.78 15.26 13.93 14.61 13.93 21.49"/><path class="cls-1" d="M15,11.39a1,1,0,0,0-1,1.11,1.15,1.15,0,0,0,.89,1.17,1,1,0,0,0,1.12-1A1.12,1.12,0,0,0,15,11.39Z"/></svg>