<svg xmlns="http://www.w3.org/2000/svg" viewBox="0 0 19 19.07"><defs><style>.cls-1{fill:#4ebd94;}</style></defs><title>search_green</title><g id="nav"><path class="cls-1" d="M19,16.17,12.21,9.29a.18.18,0,0,0-.1,0A6,6,0,0,0,7.12,0c-2.8,0-6,2-6.74,4.74A6.35,6.35,0,0,0,0,6.89a6.2,6.2,0,0,0,9.19,5.43L15.82,19a.39.39,0,0,0,.27.11.43.43,0,0,0,.27-.11l.8-.81.06,0L19,16.38A.17.17,0,0,0,19,16.17ZM6.2,12.33H5.87l-.18,0H5.6l-.17,0H5.35l-.24,0h0l-.21-.05-.08,0-.15,0-.1,0L4.4,12l-.09,0L4.1,11.9l-.08,0-.14-.06-.1-.05-.11-.06-.11-.06-.1-.05-.1-.07-.08,0-.22-.14A.18.18,0,0,0,3,11.28l-.11-.09-.07,0L2.69,11l0,0a5,5,0,0,1-.41-.39h0l-.13-.14,0,0L2,10.29H2a6.45,6.45,0,0,1-.47-.69h0a5.44,5.44,0,1,1,6,2.57l-.06,0-.22,0-.09,0-.21,0h-.1l-.21,0H6.2Zm10.36,5.34-.47.48L10,12.05l.53-.54h0l.66-.66,6.1,6.1Z"/></g></svg>