<svg id="Layer_1" data-name="Layer 1" xmlns="http://www.w3.org/2000/svg" viewBox="0 0 138.62 154.36"><defs><style>.cls-1{fill:#4ebd94;}</style></defs><title>share_green</title><path class="cls-1" d="M16.37,66.61l-.54-.28Z"/><path class="cls-1" d="M14.86,65.79l-.5-.32Z"/><path class="cls-1" d="M13.4,64.82,13,64.5Z"/><path class="cls-1" d="M10.52,62.3l-.08-.08Z"/><path class="cls-1" d="M12,63.68l-.31-.27Z"/><path class="cls-1" d="M29.14,66.3a8.35,8.35,0,0,1-.93.62A6.54,6.54,0,0,0,29.14,66.3Z"/><path class="cls-1" d="M29.9,65.63a8.09,8.09,0,0,1-.76.67A8.09,8.09,0,0,0,29.9,65.63Z"/><path class="cls-1" d="M17.92,67.27l-.48-.2Z"/><path class="cls-1" d="M105.36,139.44c.16.27.33.52.49.78h0c-.16-.26-.33-.51-.49-.78Z"/><polygon class="cls-1" points="27.19 45.24 27.19 45.24 27.19 45.24 27.19 45.24"/><path class="cls-1" d="M106.89,122.13l-.41.29.41-.29Z"/><path class="cls-1" d="M31.56,63.36l-.12.25Z"/><polygon class="cls-1" points="32.64 59.91 32.64 59.91 32.64 59.91 32.64 59.91"/><path class="cls-1" d="M30.56,64.9c-.13.15-.26.31-.4.45A5.82,5.82,0,0,0,30.56,64.9Z"/><path class="cls-1" d="M31.12,64.12c-.08.13-.17.26-.26.38C31,64.38,31,64.25,31.12,64.12Z"/><path class="cls-1" d="M121.48,111.05a15.37,15.37,0,0,0-9.63.4l-64.46-54L107.15,38.5a23.54,23.54,0,0,0,8.95,4.62,19,19,0,0,0,4.81.64,16.26,16.26,0,0,0,3.37-.35,12.41,12.41,0,0,0,5.13-1.87c6-3.81,9.21-12.87,9.21-19.46,0-9.46-7.69-19.16-17.14-21.63-5.35-1.39-12.11.5-16.82,4.71a17.6,17.6,0,0,0-4.72,6.68,14.41,14.41,0,0,0-.91,1.9L32.55,34.8A22.18,22.18,0,0,0,23.64,30c-5.06-1.32-11.87.95-16.93,5.65a21,21,0,0,0-3.35,3.94A15.5,15.5,0,0,0,0,49.54C0,59.81,8,70,18.26,72.62a19,19,0,0,0,4.82.64,16.16,16.16,0,0,0,3-.28L98,133.3a25.27,25.27,0,0,0,18.07,20.42,19,19,0,0,0,4.81.64,14.68,14.68,0,0,0,9.13-3,13.8,13.8,0,0,0,2.39-2.38c4.53-4.52,6.19-11.42,6.19-16.29C138.62,123.22,130.93,113.52,121.48,111.05Zm-15-99.23a9.81,9.81,0,0,1,6.09-2,13.89,13.89,0,0,1,3.53.47c8,2.09,14.52,10.27,14.52,18.24A10,10,0,0,1,127,36.8c-2.49,1.93-5.91,2.45-9.62,1.49a19.41,19.41,0,0,1-9-5.43h0a19.44,19.44,0,0,1-5.51-11.6h0c0-.41-.06-.81-.06-1.22A10.06,10.06,0,0,1,106.48,11.82Zm-8.43,11a24.17,24.17,0,0,0,5.14,11.72L80.33,41.75,37.57,55.3a24.26,24.26,0,0,0-5.16-11.71ZM29.14,66.3a6.54,6.54,0,0,1-.93.62,11.33,11.33,0,0,1-8.69.86,15.63,15.63,0,0,1-1.6-.51l-.48-.2c-.36-.14-.72-.29-1.07-.46l-.54-.28c-.32-.17-.65-.35-1-.54l-.5-.32c-.33-.21-.65-.42-1-.65L13,64.5c-.34-.26-.67-.54-1-.82l-.31-.27q-.6-.54-1.14-1.11l-.08-.08A19,19,0,0,1,5,49.54a10,10,0,0,1,3.64-8.22,9.82,9.82,0,0,1,6.09-2,13.86,13.86,0,0,1,3.53.48,19.35,19.35,0,0,1,8.93,5.4h0a19.06,19.06,0,0,1,5.59,12.84,12.12,12.12,0,0,1-.14,1.83h0a10.64,10.64,0,0,1-1.08,3.45l-.12.25c-.1.17-.21.34-.32.51s-.17.26-.26.38-.19.27-.3.4a5.82,5.82,0,0,1-.4.45l-.26.28A8.09,8.09,0,0,1,29.14,66.3Zm69.08,60.63L42.06,79.87l-10.74-9a10.72,10.72,0,0,0,.88-.62,14,14,0,0,0,4.73-6.74L103,118.85A14.27,14.27,0,0,0,98.22,126.93ZM127,147.4c-2.49,1.93-5.91,2.45-9.62,1.49a20.18,20.18,0,0,1-11.51-8.67h0c-.16-.26-.33-.51-.49-.78h0a17.69,17.69,0,0,1-2.52-8.8,10.06,10.06,0,0,1,3.64-8.22l.41-.29h0a9.89,9.89,0,0,1,5.68-1.66,13.89,13.89,0,0,1,3.53.47c8,2.09,14.52,10.27,14.52,18.25A10,10,0,0,1,127,147.4Z"/></svg>