<?xml version="1.0" encoding="utf-8"?>
<!-- Generator: Adobe Illustrator 21.1.0, SVG Export Plug-In . SVG Version: 6.00 Build 0)  -->
<svg version="1.1" id="Layer_1" xmlns="http://www.w3.org/2000/svg" xmlns:xlink="http://www.w3.org/1999/xlink" x="0px" y="0px"
	 viewBox="0 0 251.1 218" style="enable-background:new 0 0 251.1 218;" xml:space="preserve">
<style type="text/css">
	.st0{fill:#F7F7F7;stroke:#DDDDDD;stroke-width:2;stroke-miterlimit:10;}
	.st1{fill:#DDDDDD;}
	.st2{fill:#F7F7F7;}
	.st3{fill:#4EBD94;}
	.st4{fill:none;stroke:#B7B7B7;stroke-miterlimit:10;}
	.st5{fill:#EDECED;stroke:#939598;stroke-width:1.3;stroke-miterlimit:10;}
	.st6{fill:#EDECED;}
	.st7{fill:none;stroke:#939598;stroke-width:3;stroke-linecap:round;stroke-linejoin:round;stroke-miterlimit:10;}
	.st8{fill:none;stroke:#898989;stroke-width:0.8381;stroke-miterlimit:10;}
	.st9{fill:none;stroke:#4EBD94;stroke-width:1.3979;stroke-linecap:round;stroke-linejoin:round;stroke-miterlimit:10;}
	.st10{fill:#FFFFFF;stroke:#898989;stroke-width:1.7698;stroke-linecap:round;stroke-linejoin:round;stroke-miterlimit:10;}
	.st11{fill:#222323;}
	.st12{fill:#383838;}
	.st13{fill:#898989;}
	.st14{fill:none;stroke:#939598;stroke-width:3;stroke-linecap:round;stroke-linejoin:round;}
	.st15{fill:none;stroke:#939598;stroke-width:3;stroke-linecap:round;stroke-linejoin:round;stroke-dasharray:12.0023,12.0023;}
	.st16{fill:#A8D8BB;stroke:#212323;stroke-width:0.456;stroke-miterlimit:10;}
	.st17{clip-path:url(#SVGID_2_);}
	.st18{fill:url(#SVGID_3_);stroke:#388E6C;stroke-width:0.6665;stroke-miterlimit:10;}
	.st19{fill:url(#SVGID_4_);stroke:#388E6C;stroke-width:0.6665;stroke-miterlimit:10;}
	.st20{fill:url(#SVGID_5_);stroke:#388E6C;stroke-width:0.6665;stroke-miterlimit:10;}
	.st21{fill:url(#SVGID_6_);stroke:#388E6C;stroke-width:0.6665;stroke-miterlimit:10;}
	.st22{fill:url(#SVGID_7_);stroke:#388E6C;stroke-width:0.6665;stroke-miterlimit:10;}
	.st23{fill:url(#SVGID_8_);stroke:#388E6C;stroke-width:0.6665;stroke-miterlimit:10;}
	.st24{fill:url(#SVGID_9_);stroke:#388E6C;stroke-width:0.6665;stroke-miterlimit:10;}
	.st25{fill:url(#SVGID_10_);stroke:#388E6C;stroke-width:0.6665;stroke-miterlimit:10;}
	.st26{fill:url(#SVGID_11_);stroke:#388E6C;stroke-width:0.6665;stroke-miterlimit:10;}
	.st27{fill:url(#SVGID_12_);stroke:#388E6C;stroke-width:0.6665;stroke-miterlimit:10;}
	.st28{fill:url(#SVGID_13_);stroke:#388E6C;stroke-width:0.6665;stroke-miterlimit:10;}
	.st29{fill:url(#SVGID_14_);stroke:#388E6C;stroke-width:0.6665;stroke-miterlimit:10;}
	.st30{fill:url(#SVGID_15_);stroke:#388E6C;stroke-width:0.6665;stroke-miterlimit:10;}
	.st31{fill:url(#SVGID_16_);stroke:#388E6C;stroke-width:0.6665;stroke-miterlimit:10;}
	.st32{fill:url(#SVGID_17_);stroke:#388E6C;stroke-width:0.6665;stroke-miterlimit:10;}
	.st33{fill:url(#SVGID_18_);stroke:#388E6C;stroke-width:0.6665;stroke-miterlimit:10;}
	.st34{fill:url(#SVGID_19_);stroke:#388E6C;stroke-width:0.6665;stroke-miterlimit:10;}
	.st35{fill:url(#SVGID_20_);stroke:#388E6C;stroke-width:0.6665;stroke-miterlimit:10;}
	.st36{fill:url(#SVGID_21_);stroke:#388E6C;stroke-width:0.456;stroke-miterlimit:10;}
	.st37{fill:url(#SVGID_22_);}
	.st38{fill:#286149;}
	.st39{fill:none;stroke:#286149;stroke-width:2.8789;stroke-linecap:round;stroke-miterlimit:10;}
	.st40{fill:#4EBD94;stroke:#939598;stroke-width:3;stroke-linecap:round;stroke-linejoin:round;stroke-miterlimit:10;}
	.st41{fill:#FFFFFF;}
	.st42{fill:#D1D1D1;}
	.st43{fill:none;stroke:#939598;stroke-width:1.3279;stroke-miterlimit:10;}
	.st44{fill:#B4D5C6;}
	.st45{fill:#7DC9A9;}
	.st46{fill:none;stroke:#4EBD94;stroke-width:1.3279;stroke-miterlimit:10;}
	.st47{fill:#FFFFFF;stroke:#898989;stroke-width:1.4554;stroke-linecap:round;stroke-linejoin:round;stroke-miterlimit:10;}
	.st48{fill:none;stroke:#898989;stroke-miterlimit:10;}
	.st49{fill:#347C5F;}
	.st50{fill:none;stroke:#4EBD94;stroke-width:3;stroke-linecap:round;stroke-linejoin:round;stroke-miterlimit:10;}
	
		.st51{fill:none;stroke:#4EBD94;stroke-width:2.0058;stroke-linecap:round;stroke-linejoin:round;stroke-miterlimit:10;stroke-dasharray:7.5723;}
	.st52{fill:#FFFFFF;stroke:#939598;stroke-width:3;stroke-linecap:round;stroke-linejoin:round;stroke-miterlimit:10;}
	.st53{fill:none;stroke:#4EBD94;stroke-width:1.7378;stroke-linecap:round;stroke-linejoin:round;stroke-miterlimit:10;}
	.st54{fill:none;stroke:#4EBD94;stroke-width:2.0058;stroke-linecap:round;stroke-linejoin:round;stroke-miterlimit:10;}
	.st55{fill:none;stroke:#898989;stroke-linecap:round;stroke-linejoin:round;stroke-miterlimit:10;}
	.st56{fill:none;stroke:#4EBD94;stroke-linecap:round;stroke-linejoin:round;stroke-miterlimit:10;}
	.st57{fill:#EDECED;stroke:#898989;stroke-miterlimit:10;}
	.st58{fill:#4EBD94;stroke:#898989;stroke-linecap:round;stroke-linejoin:round;stroke-miterlimit:10;}
	.st59{fill:#EDECED;stroke:#898989;stroke-linejoin:round;stroke-miterlimit:10;}
	.st60{fill:#F7F7F7;stroke:#939598;stroke-width:3;stroke-linecap:round;stroke-linejoin:round;stroke-miterlimit:10;}
	.st61{fill:#358666;stroke:#939598;stroke-width:3;stroke-linecap:round;stroke-linejoin:round;stroke-miterlimit:10;}
	.st62{fill:#CCCCCC;}
	.st63{fill:none;stroke:#4EBD94;stroke-width:3;stroke-miterlimit:10;}
	.st64{fill:#358666;}
	.st65{fill:none;stroke:#4EBD94;stroke-width:2;stroke-linecap:round;stroke-linejoin:round;stroke-miterlimit:10;}
	.st66{fill:none;stroke:#4EBD94;stroke-width:3;stroke-linejoin:round;stroke-miterlimit:10;}
	.st67{fill:#F7F7F7;stroke:#4EBD94;stroke-width:3;stroke-linejoin:round;stroke-miterlimit:10;}
	.st68{fill:#F7F7F7;stroke:#565656;stroke-width:2;stroke-linecap:round;stroke-linejoin:round;stroke-miterlimit:10;}
	.st69{fill:#DDDDDD;stroke:#B7B7B7;stroke-width:2;stroke-miterlimit:10;}
</style>
<g>
	<circle class="st69" cx="126.6" cy="100" r="99"/>
	<circle class="st1" cx="239.1" cy="64" r="12.1"/>
	<circle class="st2" cx="239.1" cy="64" r="4.6"/>
	<path class="st3" d="M239.1,59.4c2.5,0,4.6,2,4.6,4.6s-2,4.6-4.6,4.6"/>
	<circle class="st4" cx="239.1" cy="64" r="4.6"/>
	<circle class="st1" cx="12.1" cy="23" r="12.1"/>
	<circle class="st2" cx="12.1" cy="23" r="4.6"/>
	<path class="st3" d="M12.1,18.4c2.5,0,4.6,2,4.6,4.6s-2,4.6-4.6,4.6"/>
	<circle class="st4" cx="12.1" cy="23" r="4.6"/>
	<polygon class="st60" points="126.1,73.5 45.6,119.5 205.6,119.5 	"/>
	<rect x="45.6" y="119.5" class="st61" width="160" height="97"/>
	<rect x="83.1" y="91" class="st6" width="87" height="104"/>
	<rect x="83.1" y="126" class="st62" width="87" height="69"/>
	<rect x="82.6" y="90.5" class="st63" width="87" height="104"/>
	<g>
		<polygon class="st2" points="205.1,217 45.1,217 45.1,120 		"/>
		<polygon class="st3" points="206.1,217 180.1,217 46.1,133 46.1,120 		"/>
		<polygon class="st7" points="205.6,216.5 45.6,216.5 45.6,119.5 		"/>
	</g>
	<polygon class="st2" points="46.1,217 206.1,217 206.1,120 	"/>
	<polygon class="st3" points="45.1,217 71.1,217 205.1,133 205.1,120 	"/>
	<polygon class="st7" points="45.6,216.5 205.6,216.5 205.6,119.5 	"/>
	<g>
		<g>
			<path class="st41" d="M151.6,126.1c0,0-11.2,15.6-25,15.6s-25-15.6-25-15.6s11.2-15.6,25-15.6S151.6,126.1,151.6,126.1z"/>
			<path class="st6" d="M151.6,126.1h-50c0,0,12-15.6,25-15.6S151.6,126.1,151.6,126.1z"/>
			<path class="st53" d="M151.6,126.1c0,0-11.2,15.6-25,15.6s-25-15.6-25-15.6s11.2-15.6,25-15.6S151.6,126.1,151.6,126.1z"/>
			<path class="st3" d="M126.6,116.8c-0.2,0-0.3,0-0.5,0c0.4,0.7,0.7,1.6,0.7,2.5c0,2.9-2.3,5.2-5.2,5.2c-1.4,0-2.7-0.6-3.7-1.5
				c-0.3,0.9-0.5,2-0.5,3c0,5.1,4.1,9.2,9.2,9.2s9.2-4.1,9.2-9.2S131.7,116.8,126.6,116.8z"/>
			<path class="st49" d="M135.9,126.1c0-5.1-4.1-9.2-9.2-9.2c-0.2,0-0.3,0-0.5,0c0.4,0.7,0.7,1.6,0.7,2.5c0,2.9-2.3,5.2-5.2,5.2
				c-1.4,0-2.7-0.6-3.7-1.5c-0.3,0.9-0.5,2-0.5,3l0,0H135.9L135.9,126.1z"/>
		</g>
		<line class="st55" x1="147.6" y1="126.1" x2="144.8" y2="126.1"/>
		<line class="st55" x1="143.2" y1="126.1" x2="142.4" y2="126.1"/>
		<line class="st55" x1="105.9" y1="126.1" x2="108.7" y2="126.1"/>
		<line class="st55" x1="110.4" y1="126.1" x2="111.2" y2="126.1"/>
	</g>
</g>
</svg>
