<?xml version="1.0" encoding="utf-8"?>
<!-- Generator: Adobe Illustrator 21.1.0, SVG Export Plug-In . SVG Version: 6.00 Build 0)  -->
<svg version="1.1" xmlns="http://www.w3.org/2000/svg" xmlns:xlink="http://www.w3.org/1999/xlink" x="0px" y="0px"
	 viewBox="0 0 25 30.8" style="enable-background:new 0 0 25 30.8;" xml:space="preserve">
<style type="text/css">
	.st0{fill:#212323;}
	.st1{fill:#383838;}
	.st2{fill:#F7F7F7;}
	.st3{fill:#888888;}
	.st4{fill:#4EBD94;}
	.st5{fill:#FFFFFF;}
	.st6{fill:#429976;}
	.st7{fill:#565656;}
	.st8{fill:#DDDDDD;}
	.st9{fill:none;stroke:#888888;stroke-miterlimit:10;}
	.st10{fill:none;stroke:#4EBD94;stroke-miterlimit:10;}
	.st11{fill:#FF5562;}
	.st12{fill:#FFFFFF;stroke:#4EBD94;stroke-miterlimit:10;}
	.st13{fill:#B7B7B7;}
	.st14{fill:#B3B3B3;}
	.st15{fill:none;stroke:#DDDDDD;stroke-miterlimit:10;}
	.st16{fill:#FFFFFF;stroke:#DDDDDD;stroke-width:0.9456;stroke-miterlimit:10;}
	.st17{fill:none;stroke:#565656;stroke-width:0.8839;stroke-miterlimit:10;}
	.st18{fill:#60D8A7;}
	.st19{fill:#358666;}
	.st20{fill:url(#SVGID_33_);}
	.st21{fill:#CD8A2A;}
	.st22{fill:none;stroke:#565656;stroke-miterlimit:10;}
	.st23{fill:#212323;stroke:#888888;stroke-width:0.9456;stroke-miterlimit:10;}
	.st24{fill:none;stroke:#F7F7F7;stroke-width:0.8839;stroke-miterlimit:10;}
	.st25{fill:url(#SVGID_34_);}
	.st26{fill:url(#SVGID_35_);}
	.st27{fill:url(#SVGID_36_);}
	.st28{opacity:0.94;fill:#FFFFFF;}
	.st29{fill:none;stroke:#FFFFFF;stroke-linecap:round;stroke-miterlimit:10;}
	.st30{fill:none;stroke:#FFFFFF;stroke-miterlimit:10;}
	.st31{fill:#A8D8BB;stroke:#212323;stroke-width:0.1741;stroke-miterlimit:10;}
	.st32{clip-path:url(#SVGID_58_);}
	.st33{fill:url(#SVGID_59_);stroke:#388E6C;stroke-width:0.2544;stroke-miterlimit:10;}
	.st34{fill:url(#SVGID_60_);stroke:#388E6C;stroke-width:0.2544;stroke-miterlimit:10;}
	.st35{fill:url(#SVGID_61_);stroke:#388E6C;stroke-width:0.2544;stroke-miterlimit:10;}
	.st36{fill:url(#SVGID_62_);stroke:#388E6C;stroke-width:0.2544;stroke-miterlimit:10;}
	.st37{fill:url(#SVGID_63_);stroke:#388E6C;stroke-width:0.2544;stroke-miterlimit:10;}
	.st38{fill:url(#SVGID_64_);stroke:#388E6C;stroke-width:0.2544;stroke-miterlimit:10;}
	.st39{fill:url(#SVGID_65_);stroke:#388E6C;stroke-width:0.2544;stroke-miterlimit:10;}
	.st40{fill:url(#SVGID_66_);stroke:#388E6C;stroke-width:0.2544;stroke-miterlimit:10;}
	.st41{fill:url(#SVGID_67_);stroke:#388E6C;stroke-width:0.2544;stroke-miterlimit:10;}
	.st42{fill:url(#SVGID_68_);stroke:#388E6C;stroke-width:0.2544;stroke-miterlimit:10;}
	.st43{fill:url(#SVGID_69_);stroke:#388E6C;stroke-width:0.2544;stroke-miterlimit:10;}
	.st44{fill:url(#SVGID_70_);stroke:#388E6C;stroke-width:0.2544;stroke-miterlimit:10;}
	.st45{fill:url(#SVGID_71_);stroke:#388E6C;stroke-width:0.2544;stroke-miterlimit:10;}
	.st46{fill:url(#SVGID_72_);stroke:#388E6C;stroke-width:0.2544;stroke-miterlimit:10;}
	.st47{fill:url(#SVGID_73_);stroke:#388E6C;stroke-width:0.2544;stroke-miterlimit:10;}
	.st48{fill:url(#SVGID_74_);stroke:#388E6C;stroke-width:0.2544;stroke-miterlimit:10;}
	.st49{fill:url(#SVGID_75_);stroke:#388E6C;stroke-width:0.2544;stroke-miterlimit:10;}
	.st50{fill:url(#SVGID_76_);stroke:#388E6C;stroke-width:0.2544;stroke-miterlimit:10;}
	.st51{fill:url(#SVGID_77_);stroke:#388E6C;stroke-width:0.1741;stroke-miterlimit:10;}
	.st52{fill:url(#SVGID_78_);}
	.st53{fill:#286149;}
	.st54{fill:none;stroke:#286149;stroke-width:1.0989;stroke-linecap:round;stroke-miterlimit:10;}
	.st55{clip-path:url(#SVGID_82_);}
	.st56{fill:url(#SVGID_83_);stroke:#388E6C;stroke-width:0.2544;stroke-miterlimit:10;}
	.st57{fill:url(#SVGID_84_);stroke:#388E6C;stroke-width:0.2544;stroke-miterlimit:10;}
	.st58{fill:url(#SVGID_85_);stroke:#388E6C;stroke-width:0.2544;stroke-miterlimit:10;}
	.st59{fill:url(#SVGID_86_);stroke:#388E6C;stroke-width:0.2544;stroke-miterlimit:10;}
	.st60{fill:url(#SVGID_87_);stroke:#388E6C;stroke-width:0.2544;stroke-miterlimit:10;}
	.st61{fill:url(#SVGID_88_);stroke:#388E6C;stroke-width:0.2544;stroke-miterlimit:10;}
	.st62{fill:url(#SVGID_89_);stroke:#388E6C;stroke-width:0.2544;stroke-miterlimit:10;}
	.st63{fill:url(#SVGID_90_);stroke:#388E6C;stroke-width:0.2544;stroke-miterlimit:10;}
	.st64{fill:url(#SVGID_91_);stroke:#388E6C;stroke-width:0.2544;stroke-miterlimit:10;}
	.st65{fill:url(#SVGID_92_);stroke:#388E6C;stroke-width:0.2544;stroke-miterlimit:10;}
	.st66{fill:url(#SVGID_93_);stroke:#388E6C;stroke-width:0.2544;stroke-miterlimit:10;}
	.st67{fill:url(#SVGID_94_);stroke:#388E6C;stroke-width:0.2544;stroke-miterlimit:10;}
	.st68{fill:url(#SVGID_95_);stroke:#388E6C;stroke-width:0.2544;stroke-miterlimit:10;}
	.st69{fill:url(#SVGID_96_);stroke:#388E6C;stroke-width:0.2544;stroke-miterlimit:10;}
	.st70{fill:url(#SVGID_97_);stroke:#388E6C;stroke-width:0.2544;stroke-miterlimit:10;}
	.st71{fill:url(#SVGID_98_);stroke:#388E6C;stroke-width:0.2544;stroke-miterlimit:10;}
	.st72{fill:url(#SVGID_99_);stroke:#388E6C;stroke-width:0.2544;stroke-miterlimit:10;}
	.st73{fill:url(#SVGID_100_);stroke:#388E6C;stroke-width:0.2544;stroke-miterlimit:10;}
	.st74{fill:url(#SVGID_101_);stroke:#388E6C;stroke-width:0.1741;stroke-miterlimit:10;}
	.st75{fill:url(#SVGID_102_);}
	.st76{clip-path:url(#SVGID_106_);}
	.st77{fill:url(#SVGID_107_);stroke:#388E6C;stroke-width:0.2544;stroke-miterlimit:10;}
	.st78{fill:url(#SVGID_108_);stroke:#388E6C;stroke-width:0.2544;stroke-miterlimit:10;}
	.st79{fill:url(#SVGID_109_);stroke:#388E6C;stroke-width:0.2544;stroke-miterlimit:10;}
	.st80{fill:url(#SVGID_110_);stroke:#388E6C;stroke-width:0.2544;stroke-miterlimit:10;}
	.st81{fill:url(#SVGID_111_);stroke:#388E6C;stroke-width:0.2544;stroke-miterlimit:10;}
	.st82{fill:url(#SVGID_112_);stroke:#388E6C;stroke-width:0.2544;stroke-miterlimit:10;}
	.st83{fill:url(#SVGID_113_);stroke:#388E6C;stroke-width:0.2544;stroke-miterlimit:10;}
	.st84{fill:url(#SVGID_114_);stroke:#388E6C;stroke-width:0.2544;stroke-miterlimit:10;}
	.st85{fill:url(#SVGID_115_);stroke:#388E6C;stroke-width:0.2544;stroke-miterlimit:10;}
	.st86{fill:url(#SVGID_116_);stroke:#388E6C;stroke-width:0.2544;stroke-miterlimit:10;}
	.st87{fill:url(#SVGID_117_);stroke:#388E6C;stroke-width:0.2544;stroke-miterlimit:10;}
	.st88{fill:url(#SVGID_118_);stroke:#388E6C;stroke-width:0.2544;stroke-miterlimit:10;}
	.st89{fill:url(#SVGID_119_);stroke:#388E6C;stroke-width:0.2544;stroke-miterlimit:10;}
	.st90{fill:url(#SVGID_120_);stroke:#388E6C;stroke-width:0.2544;stroke-miterlimit:10;}
	.st91{fill:url(#SVGID_121_);stroke:#388E6C;stroke-width:0.2544;stroke-miterlimit:10;}
	.st92{fill:url(#SVGID_122_);stroke:#388E6C;stroke-width:0.2544;stroke-miterlimit:10;}
	.st93{fill:url(#SVGID_123_);stroke:#388E6C;stroke-width:0.2544;stroke-miterlimit:10;}
	.st94{fill:url(#SVGID_124_);stroke:#388E6C;stroke-width:0.2544;stroke-miterlimit:10;}
	.st95{fill:url(#SVGID_125_);stroke:#388E6C;stroke-width:0.1741;stroke-miterlimit:10;}
	.st96{fill:url(#SVGID_126_);}
	.st97{opacity:0.5;fill:#138BCE;}
	.st98{opacity:9.000000e-02;fill:#FF5562;}
</style>
<g id="video">
</g>
<g id="channel">
	<path class="st11" d="M24.9,19.7L23,10c-0.3-1.4-1.2-2.6-2.4-2.9L7.2,2.5c-0.1,0-0.1,0-0.2,0L6,3.5V1.4C6,1.3,6,1.3,5.9,1.2
		L2.8,0.1C2.1-0.1,1.2,0,0.6,0.4C0.4,0.6,0.2,0.8,0.1,1C0,1,0,1.2,0,1.3V18c0,0.2,0.1,0.4,0.3,0.4l4.1,1.4c0,0,0.1,0,0.1,0
		c0.1,0,0.2,0,0.3-0.1c0,0,0.1-0.1,0.1-0.1c0.1,0,0.1-0.1,0.2-0.1l0.4-0.7c0,0,0,0,0,0l2.1,1.1c0.7,0.4,1.3,1.2,1.5,2.2l1.3,5.3
		c0.4,1.5,1.4,2.8,2.6,3.2c0.3,0.1,0.6,0.1,0.8,0.1c0.5,0,0.9-0.2,1.3-0.5c0.1-0.1,0.2-0.2,0.3-0.3c1-0.8,1.8-2.4,1.7-3.8l-0.5-3.7
		l4.4,1.5c0.8,0.3,1.5,0.1,2.1-0.4c0,0,0.1-0.1,0.1-0.1c0.1-0.1,0.1-0.1,0.2-0.2C24.4,22.7,25.2,21,24.9,19.7z M4.1,18.8l-3.2-1.1
		v-7.2V1.9L4.1,3V18.8z M22.6,23.1c-0.3,0.3-0.7,0.3-1.1,0.2l-3.2-1.1l-1.7-0.6l0,0L15,21.1c-0.2-0.1-0.3,0-0.4,0.1
		c-0.1,0.1-0.2,0.3-0.2,0.4l0.8,6.1c0.1,0.8-0.1,1.5-0.5,1.9c-0.3,0.3-0.8,0.3-1.3,0.2c-0.3-0.1-0.6-0.3-0.9-0.5c0,0,0,0,0,0
		c-0.1-0.1-0.3-0.3-0.4-0.4c0,0,0,0,0-0.1c-0.1-0.1-0.1-0.2-0.2-0.2c0,0,0,0,0,0c-0.1-0.1-0.1-0.2-0.1-0.3c0,0,0,0,0-0.1
		c0-0.1-0.1-0.2-0.1-0.3c0,0,0,0,0,0c0-0.1-0.1-0.2-0.1-0.3c0,0,0,0,0-0.1c0-0.1-0.1-0.2-0.1-0.3L10.1,22c-0.3-1.2-1-2.2-2-2.8
		l-1.8-1v-7.7V4.7l12.8,4.3c0.9,0.3,1.7,1.3,1.9,2.5l2,9.8C23.1,22,23,22.7,22.6,23.1z"/>
</g>
<g id="comments_x2F_description">
</g>
<g id="nav">
</g>
<g id="guides">
</g>
</svg>
