<?xml version="1.0" encoding="utf-8"?>
<!-- Generator: Adobe Illustrator 21.1.0, SVG Export Plug-In . SVG Version: 6.00 Build 0)  -->
<svg version="1.1" xmlns="http://www.w3.org/2000/svg" xmlns:xlink="http://www.w3.org/1999/xlink" x="0px" y="0px"
	 viewBox="0 0 32.9 25" style="enable-background:new 0 0 32.9 25;" xml:space="preserve">
<style type="text/css">
	.st0{fill:#212323;}
	.st1{fill:#383838;}
	.st2{fill:#F7F7F7;}
	.st3{fill:#888888;}
	.st4{fill:#4EBD94;}
	.st5{fill:#FFFFFF;}
	.st6{fill:#429976;}
	.st7{fill:#565656;}
	.st8{fill:#DDDDDD;}
	.st9{fill:none;stroke:#888888;stroke-miterlimit:10;}
	.st10{fill:none;stroke:#4EBD94;stroke-miterlimit:10;}
	.st11{fill:#FF5562;}
	.st12{fill:#FFFFFF;stroke:#4EBD94;stroke-miterlimit:10;}
	.st13{fill:#B7B7B7;}
	.st14{fill:#B3B3B3;}
	.st15{fill:none;stroke:#DDDDDD;stroke-miterlimit:10;}
	.st16{fill:#FFFFFF;stroke:#DDDDDD;stroke-width:0.9456;stroke-miterlimit:10;}
	.st17{fill:none;stroke:#565656;stroke-width:0.8839;stroke-miterlimit:10;}
	.st18{fill:#60D8A7;}
	.st19{fill:#358666;}
	.st20{fill:url(#SVGID_35_);}
	.st21{fill:#CD8A2A;}
	.st22{fill:none;stroke:#565656;stroke-miterlimit:10;}
	.st23{fill:#212323;stroke:#888888;stroke-width:0.9456;stroke-miterlimit:10;}
	.st24{fill:none;stroke:#F7F7F7;stroke-width:0.8839;stroke-miterlimit:10;}
	.st25{fill:url(#SVGID_36_);}
	.st26{fill:url(#SVGID_37_);}
	.st27{fill:url(#SVGID_38_);}
	.st28{fill:url(#SVGID_39_);}
	.st29{opacity:0.94;fill:#FFFFFF;}
	.st30{fill:none;stroke:#FFFFFF;stroke-linecap:round;stroke-miterlimit:10;}
	.st31{fill:none;stroke:#FFFFFF;stroke-miterlimit:10;}
	.st32{fill:#A8D8BB;stroke:#212323;stroke-width:0.1741;stroke-miterlimit:10;}
	.st33{clip-path:url(#SVGID_61_);}
	.st34{fill:url(#SVGID_62_);stroke:#388E6C;stroke-width:0.2544;stroke-miterlimit:10;}
	.st35{fill:url(#SVGID_63_);stroke:#388E6C;stroke-width:0.2544;stroke-miterlimit:10;}
	.st36{fill:url(#SVGID_64_);stroke:#388E6C;stroke-width:0.2544;stroke-miterlimit:10;}
	.st37{fill:url(#SVGID_65_);stroke:#388E6C;stroke-width:0.2544;stroke-miterlimit:10;}
	.st38{fill:url(#SVGID_66_);stroke:#388E6C;stroke-width:0.2544;stroke-miterlimit:10;}
	.st39{fill:url(#SVGID_67_);stroke:#388E6C;stroke-width:0.2544;stroke-miterlimit:10;}
	.st40{fill:url(#SVGID_68_);stroke:#388E6C;stroke-width:0.2544;stroke-miterlimit:10;}
	.st41{fill:url(#SVGID_69_);stroke:#388E6C;stroke-width:0.2544;stroke-miterlimit:10;}
	.st42{fill:url(#SVGID_70_);stroke:#388E6C;stroke-width:0.2544;stroke-miterlimit:10;}
	.st43{fill:url(#SVGID_71_);stroke:#388E6C;stroke-width:0.2544;stroke-miterlimit:10;}
	.st44{fill:url(#SVGID_72_);stroke:#388E6C;stroke-width:0.2544;stroke-miterlimit:10;}
	.st45{fill:url(#SVGID_73_);stroke:#388E6C;stroke-width:0.2544;stroke-miterlimit:10;}
	.st46{fill:url(#SVGID_74_);stroke:#388E6C;stroke-width:0.2544;stroke-miterlimit:10;}
	.st47{fill:url(#SVGID_75_);stroke:#388E6C;stroke-width:0.2544;stroke-miterlimit:10;}
	.st48{fill:url(#SVGID_76_);stroke:#388E6C;stroke-width:0.2544;stroke-miterlimit:10;}
	.st49{fill:url(#SVGID_77_);stroke:#388E6C;stroke-width:0.2544;stroke-miterlimit:10;}
	.st50{fill:url(#SVGID_78_);stroke:#388E6C;stroke-width:0.2544;stroke-miterlimit:10;}
	.st51{fill:url(#SVGID_79_);stroke:#388E6C;stroke-width:0.2544;stroke-miterlimit:10;}
	.st52{fill:url(#SVGID_80_);stroke:#388E6C;stroke-width:0.1741;stroke-miterlimit:10;}
	.st53{fill:url(#SVGID_81_);}
	.st54{fill:#286149;}
	.st55{fill:none;stroke:#286149;stroke-width:1.0989;stroke-linecap:round;stroke-miterlimit:10;}
	.st56{clip-path:url(#SVGID_85_);}
	.st57{fill:url(#SVGID_86_);stroke:#388E6C;stroke-width:0.2544;stroke-miterlimit:10;}
	.st58{fill:url(#SVGID_87_);stroke:#388E6C;stroke-width:0.2544;stroke-miterlimit:10;}
	.st59{fill:url(#SVGID_88_);stroke:#388E6C;stroke-width:0.2544;stroke-miterlimit:10;}
	.st60{fill:url(#SVGID_89_);stroke:#388E6C;stroke-width:0.2544;stroke-miterlimit:10;}
	.st61{fill:url(#SVGID_90_);stroke:#388E6C;stroke-width:0.2544;stroke-miterlimit:10;}
	.st62{fill:url(#SVGID_91_);stroke:#388E6C;stroke-width:0.2544;stroke-miterlimit:10;}
	.st63{fill:url(#SVGID_92_);stroke:#388E6C;stroke-width:0.2544;stroke-miterlimit:10;}
	.st64{fill:url(#SVGID_93_);stroke:#388E6C;stroke-width:0.2544;stroke-miterlimit:10;}
	.st65{fill:url(#SVGID_94_);stroke:#388E6C;stroke-width:0.2544;stroke-miterlimit:10;}
	.st66{fill:url(#SVGID_95_);stroke:#388E6C;stroke-width:0.2544;stroke-miterlimit:10;}
	.st67{fill:url(#SVGID_96_);stroke:#388E6C;stroke-width:0.2544;stroke-miterlimit:10;}
	.st68{fill:url(#SVGID_97_);stroke:#388E6C;stroke-width:0.2544;stroke-miterlimit:10;}
	.st69{fill:url(#SVGID_98_);stroke:#388E6C;stroke-width:0.2544;stroke-miterlimit:10;}
	.st70{fill:url(#SVGID_99_);stroke:#388E6C;stroke-width:0.2544;stroke-miterlimit:10;}
	.st71{fill:url(#SVGID_100_);stroke:#388E6C;stroke-width:0.2544;stroke-miterlimit:10;}
	.st72{fill:url(#SVGID_101_);stroke:#388E6C;stroke-width:0.2544;stroke-miterlimit:10;}
	.st73{fill:url(#SVGID_102_);stroke:#388E6C;stroke-width:0.2544;stroke-miterlimit:10;}
	.st74{fill:url(#SVGID_103_);stroke:#388E6C;stroke-width:0.2544;stroke-miterlimit:10;}
	.st75{fill:url(#SVGID_104_);stroke:#388E6C;stroke-width:0.1741;stroke-miterlimit:10;}
	.st76{fill:url(#SVGID_105_);}
	.st77{clip-path:url(#SVGID_109_);}
	.st78{fill:url(#SVGID_110_);stroke:#388E6C;stroke-width:0.2544;stroke-miterlimit:10;}
	.st79{fill:url(#SVGID_111_);stroke:#388E6C;stroke-width:0.2544;stroke-miterlimit:10;}
	.st80{fill:url(#SVGID_112_);stroke:#388E6C;stroke-width:0.2544;stroke-miterlimit:10;}
	.st81{fill:url(#SVGID_113_);stroke:#388E6C;stroke-width:0.2544;stroke-miterlimit:10;}
	.st82{fill:url(#SVGID_114_);stroke:#388E6C;stroke-width:0.2544;stroke-miterlimit:10;}
	.st83{fill:url(#SVGID_115_);stroke:#388E6C;stroke-width:0.2544;stroke-miterlimit:10;}
	.st84{fill:url(#SVGID_116_);stroke:#388E6C;stroke-width:0.2544;stroke-miterlimit:10;}
	.st85{fill:url(#SVGID_117_);stroke:#388E6C;stroke-width:0.2544;stroke-miterlimit:10;}
	.st86{fill:url(#SVGID_118_);stroke:#388E6C;stroke-width:0.2544;stroke-miterlimit:10;}
	.st87{fill:url(#SVGID_119_);stroke:#388E6C;stroke-width:0.2544;stroke-miterlimit:10;}
	.st88{fill:url(#SVGID_120_);stroke:#388E6C;stroke-width:0.2544;stroke-miterlimit:10;}
	.st89{fill:url(#SVGID_121_);stroke:#388E6C;stroke-width:0.2544;stroke-miterlimit:10;}
	.st90{fill:url(#SVGID_122_);stroke:#388E6C;stroke-width:0.2544;stroke-miterlimit:10;}
	.st91{fill:url(#SVGID_123_);stroke:#388E6C;stroke-width:0.2544;stroke-miterlimit:10;}
	.st92{fill:url(#SVGID_124_);stroke:#388E6C;stroke-width:0.2544;stroke-miterlimit:10;}
	.st93{fill:url(#SVGID_125_);stroke:#388E6C;stroke-width:0.2544;stroke-miterlimit:10;}
	.st94{fill:url(#SVGID_126_);stroke:#388E6C;stroke-width:0.2544;stroke-miterlimit:10;}
	.st95{fill:url(#SVGID_127_);stroke:#388E6C;stroke-width:0.2544;stroke-miterlimit:10;}
	.st96{fill:url(#SVGID_128_);stroke:#388E6C;stroke-width:0.1741;stroke-miterlimit:10;}
	.st97{fill:url(#SVGID_129_);}
	.st98{clip-path:url(#SVGID_133_);}
	.st99{fill:url(#SVGID_134_);stroke:#388E6C;stroke-width:0.2544;stroke-miterlimit:10;}
	.st100{fill:url(#SVGID_135_);stroke:#388E6C;stroke-width:0.2544;stroke-miterlimit:10;}
	.st101{fill:url(#SVGID_136_);stroke:#388E6C;stroke-width:0.2544;stroke-miterlimit:10;}
	.st102{fill:url(#SVGID_137_);stroke:#388E6C;stroke-width:0.2544;stroke-miterlimit:10;}
	.st103{fill:url(#SVGID_138_);stroke:#388E6C;stroke-width:0.2544;stroke-miterlimit:10;}
	.st104{fill:url(#SVGID_139_);stroke:#388E6C;stroke-width:0.2544;stroke-miterlimit:10;}
	.st105{fill:url(#SVGID_140_);stroke:#388E6C;stroke-width:0.2544;stroke-miterlimit:10;}
	.st106{fill:url(#SVGID_141_);stroke:#388E6C;stroke-width:0.2544;stroke-miterlimit:10;}
	.st107{fill:url(#SVGID_142_);stroke:#388E6C;stroke-width:0.2544;stroke-miterlimit:10;}
	.st108{fill:url(#SVGID_143_);stroke:#388E6C;stroke-width:0.2544;stroke-miterlimit:10;}
	.st109{fill:url(#SVGID_144_);stroke:#388E6C;stroke-width:0.2544;stroke-miterlimit:10;}
	.st110{fill:url(#SVGID_145_);stroke:#388E6C;stroke-width:0.2544;stroke-miterlimit:10;}
	.st111{fill:url(#SVGID_146_);stroke:#388E6C;stroke-width:0.2544;stroke-miterlimit:10;}
	.st112{fill:url(#SVGID_147_);stroke:#388E6C;stroke-width:0.2544;stroke-miterlimit:10;}
	.st113{fill:url(#SVGID_148_);stroke:#388E6C;stroke-width:0.2544;stroke-miterlimit:10;}
	.st114{fill:url(#SVGID_149_);stroke:#388E6C;stroke-width:0.2544;stroke-miterlimit:10;}
	.st115{fill:url(#SVGID_150_);stroke:#388E6C;stroke-width:0.2544;stroke-miterlimit:10;}
	.st116{fill:url(#SVGID_151_);stroke:#388E6C;stroke-width:0.2544;stroke-miterlimit:10;}
	.st117{fill:url(#SVGID_152_);stroke:#388E6C;stroke-width:0.1741;stroke-miterlimit:10;}
	.st118{fill:url(#SVGID_153_);}
	.st119{fill:none;stroke:#B3B3B3;stroke-miterlimit:10;}
	.st120{clip-path:url(#SVGID_157_);}
	.st121{fill:url(#SVGID_158_);stroke:#388E6C;stroke-width:0.2544;stroke-miterlimit:10;}
	.st122{fill:url(#SVGID_159_);stroke:#388E6C;stroke-width:0.2544;stroke-miterlimit:10;}
	.st123{fill:url(#SVGID_160_);stroke:#388E6C;stroke-width:0.2544;stroke-miterlimit:10;}
	.st124{fill:url(#SVGID_161_);stroke:#388E6C;stroke-width:0.2544;stroke-miterlimit:10;}
	.st125{fill:url(#SVGID_162_);stroke:#388E6C;stroke-width:0.2544;stroke-miterlimit:10;}
	.st126{fill:url(#SVGID_163_);stroke:#388E6C;stroke-width:0.2544;stroke-miterlimit:10;}
	.st127{fill:url(#SVGID_164_);stroke:#388E6C;stroke-width:0.2544;stroke-miterlimit:10;}
	.st128{fill:url(#SVGID_165_);stroke:#388E6C;stroke-width:0.2544;stroke-miterlimit:10;}
	.st129{fill:url(#SVGID_166_);stroke:#388E6C;stroke-width:0.2544;stroke-miterlimit:10;}
	.st130{fill:url(#SVGID_167_);stroke:#388E6C;stroke-width:0.2544;stroke-miterlimit:10;}
	.st131{fill:url(#SVGID_168_);stroke:#388E6C;stroke-width:0.2544;stroke-miterlimit:10;}
	.st132{fill:url(#SVGID_169_);stroke:#388E6C;stroke-width:0.2544;stroke-miterlimit:10;}
	.st133{fill:url(#SVGID_170_);stroke:#388E6C;stroke-width:0.2544;stroke-miterlimit:10;}
	.st134{fill:url(#SVGID_171_);stroke:#388E6C;stroke-width:0.2544;stroke-miterlimit:10;}
	.st135{fill:url(#SVGID_172_);stroke:#388E6C;stroke-width:0.2544;stroke-miterlimit:10;}
	.st136{fill:url(#SVGID_173_);stroke:#388E6C;stroke-width:0.2544;stroke-miterlimit:10;}
	.st137{fill:url(#SVGID_174_);stroke:#388E6C;stroke-width:0.2544;stroke-miterlimit:10;}
	.st138{fill:url(#SVGID_175_);stroke:#388E6C;stroke-width:0.2544;stroke-miterlimit:10;}
	.st139{fill:url(#SVGID_176_);stroke:#388E6C;stroke-width:0.1741;stroke-miterlimit:10;}
	.st140{fill:url(#SVGID_177_);}
	.st141{clip-path:url(#SVGID_181_);}
	.st142{fill:url(#SVGID_182_);stroke:#388E6C;stroke-width:0.2544;stroke-miterlimit:10;}
	.st143{fill:url(#SVGID_183_);stroke:#388E6C;stroke-width:0.2544;stroke-miterlimit:10;}
	.st144{fill:url(#SVGID_184_);stroke:#388E6C;stroke-width:0.2544;stroke-miterlimit:10;}
	.st145{fill:url(#SVGID_185_);stroke:#388E6C;stroke-width:0.2544;stroke-miterlimit:10;}
	.st146{fill:url(#SVGID_186_);stroke:#388E6C;stroke-width:0.2544;stroke-miterlimit:10;}
	.st147{fill:url(#SVGID_187_);stroke:#388E6C;stroke-width:0.2544;stroke-miterlimit:10;}
	.st148{fill:url(#SVGID_188_);stroke:#388E6C;stroke-width:0.2544;stroke-miterlimit:10;}
	.st149{fill:url(#SVGID_189_);stroke:#388E6C;stroke-width:0.2544;stroke-miterlimit:10;}
	.st150{fill:url(#SVGID_190_);stroke:#388E6C;stroke-width:0.2544;stroke-miterlimit:10;}
	.st151{fill:url(#SVGID_191_);stroke:#388E6C;stroke-width:0.2544;stroke-miterlimit:10;}
	.st152{fill:url(#SVGID_192_);stroke:#388E6C;stroke-width:0.2544;stroke-miterlimit:10;}
	.st153{fill:url(#SVGID_193_);stroke:#388E6C;stroke-width:0.2544;stroke-miterlimit:10;}
	.st154{fill:url(#SVGID_194_);stroke:#388E6C;stroke-width:0.2544;stroke-miterlimit:10;}
	.st155{fill:url(#SVGID_195_);stroke:#388E6C;stroke-width:0.2544;stroke-miterlimit:10;}
	.st156{fill:url(#SVGID_196_);stroke:#388E6C;stroke-width:0.2544;stroke-miterlimit:10;}
	.st157{fill:url(#SVGID_197_);stroke:#388E6C;stroke-width:0.2544;stroke-miterlimit:10;}
	.st158{fill:url(#SVGID_198_);stroke:#388E6C;stroke-width:0.2544;stroke-miterlimit:10;}
	.st159{fill:url(#SVGID_199_);stroke:#388E6C;stroke-width:0.2544;stroke-miterlimit:10;}
	.st160{fill:url(#SVGID_200_);stroke:#388E6C;stroke-width:0.1741;stroke-miterlimit:10;}
	.st161{fill:url(#SVGID_201_);}
	.st162{opacity:0.5;fill:#138BCE;}
	.st163{opacity:9.000000e-02;fill:#FF5562;}
</style>
<g id="video">
</g>
<g id="channel">
</g>
<g id="comments_x2F_description">
</g>
<g id="nav">
	<g>
		<path class="st4" d="M25.2,6c-1.2-0.4-2.3-0.5-3.4-0.3c-1.1-2.6-3.3-4.7-5.7-5.5c-1.7-0.6-3.9-0.1-5.8,1.3c-0.4,0.3-0.7,0.6-1,0.9
			C8.7,2.8,8.3,3.4,8,4.1C7.9,4.2,7.8,4.4,7.8,4.5C6.3,4.1,4.6,4.5,3,5.7C2.7,5.8,2.5,6,2.3,6.2C2.1,6.3,2,6.4,1.8,6.5
			C0.7,7.4,0,8.8,0,10.5c0,3.4,2.7,7.1,5.9,8.2l17.2,5.7c0.7,0.2,1.4,0.4,2.1,0.4C25.6,25,26,25,26.3,25c1.1,0,2.1-0.4,3.1-1.1
			c2.1-1.5,3.5-4.4,3.5-7.2C32.9,12.3,29.4,7.5,25.2,6z M28.4,22.9c-1.3,0.9-3,1.1-4.9,0.5l-5-1.7l0,0L6.3,17.7
			c-0.1,0-0.2-0.1-0.3-0.1c0,0-0.1,0-0.1,0c-0.1,0-0.2-0.1-0.3-0.1c0,0-0.1,0-0.1,0c-0.1-0.1-0.2-0.1-0.3-0.2c0,0,0,0-0.1,0
			c-0.1,0-0.2-0.1-0.3-0.2c0,0-0.1,0-0.1-0.1c-0.1-0.1-0.2-0.1-0.3-0.2c0,0,0,0,0,0c-0.1-0.1-0.2-0.1-0.3-0.2c0,0,0,0-0.1-0.1
			c-0.1-0.1-0.2-0.1-0.2-0.2c0,0,0,0-0.1,0c-0.1-0.1-0.2-0.2-0.3-0.3c0,0,0,0,0,0c-0.1-0.1-0.2-0.2-0.3-0.3c0,0,0,0,0-0.1
			c-0.1-0.1-0.2-0.2-0.2-0.3c0,0,0,0,0,0c-0.1-0.1-0.2-0.2-0.3-0.3c0,0,0,0,0,0c-0.1-0.1-0.1-0.2-0.2-0.3c0,0,0,0,0,0
			c-0.2-0.2-0.3-0.4-0.4-0.7c0,0,0,0,0,0c-0.1-0.1-0.1-0.2-0.2-0.3c0,0,0,0,0,0c-0.1-0.1-0.1-0.2-0.2-0.4l0,0l0,0
			c-0.4-0.9-0.6-1.8-0.6-2.7c0-1.4,0.5-2.5,1.4-3.1C3,7,3.7,6.8,4.4,6.8c0.5,0,1,0.1,1.5,0.3c0.6,0.2,1.2,0.5,1.8,1
			c0.2,0.1,0.4,0.1,0.6,0c0.2-0.1,0.3-0.3,0.3-0.5c0-0.3-0.1-0.6-0.1-0.8c0-1.6,0.6-2.8,1.6-3.6c1-0.7,2.4-0.9,3.9-0.4
			c2.2,0.7,4.3,2.8,5.3,5.2c0.1,0.2,0.4,0.4,0.6,0.3c1-0.2,2.1-0.1,3.2,0.3c0,0,0,0,0,0c4,1.3,7.2,5.8,7.2,10
			C30.4,20.4,29.7,22,28.4,22.9z"/>
		<path class="st4" d="M10.3,13.5l3.9-2.6c0.1-0.1,0.4,0,0.5,0.2l3.9,5.2c0.2,0.3,0.1,0.7-0.3,0.6l-7.8-2.6
			C10.2,14.1,10.1,13.7,10.3,13.5z M19.1,17.6l-9.4-3.1c-0.1,0-0.2,0-0.2,0.1v0.6c0,0.1,0.1,0.2,0.2,0.2l9.4,3.1
			c0.1,0,0.2,0,0.2-0.1v-0.6C19.3,17.7,19.2,17.6,19.1,17.6z"/>
	</g>
</g>
<g id="guides">
</g>
</svg>
