<?xml version="1.0" encoding="utf-8"?>
<!-- Generator: Adobe Illustrator 21.1.0, SVG Export Plug-In . SVG Version: 6.00 Build 0)  -->
<svg version="1.1" xmlns="http://www.w3.org/2000/svg" xmlns:xlink="http://www.w3.org/1999/xlink" x="0px" y="0px"
	 viewBox="0 0 25 27.5" style="enable-background:new 0 0 25 27.5;" xml:space="preserve">
<style type="text/css">
	.st0{fill:#212323;}
	.st1{fill:#383838;}
	.st2{fill:#F7F7F7;}
	.st3{fill:#888888;}
	.st4{fill:#4EBD94;}
	.st5{fill:#FFFFFF;}
	.st6{fill:#429976;}
	.st7{fill:#565656;}
	.st8{fill:#DDDDDD;}
	.st9{fill:none;stroke:#888888;stroke-miterlimit:10;}
	.st10{fill:none;stroke:#4EBD94;stroke-miterlimit:10;}
	.st11{fill:#FF5562;}
	.st12{fill:#FFFFFF;stroke:#4EBD94;stroke-miterlimit:10;}
	.st13{fill:#B7B7B7;}
	.st14{fill:#B3B3B3;}
	.st15{fill:none;stroke:#DDDDDD;stroke-miterlimit:10;}
	.st16{fill:#FFFFFF;stroke:#DDDDDD;stroke-width:0.9456;stroke-miterlimit:10;}
	.st17{fill:none;stroke:#565656;stroke-width:0.8839;stroke-miterlimit:10;}
	.st18{fill:#60D8A7;}
	.st19{fill:#358666;}
	.st20{fill:url(#SVGID_33_);}
	.st21{fill:#CD8A2A;}
	.st22{fill:none;stroke:#565656;stroke-miterlimit:10;}
	.st23{fill:#212323;stroke:#888888;stroke-width:0.9456;stroke-miterlimit:10;}
	.st24{fill:none;stroke:#F7F7F7;stroke-width:0.8839;stroke-miterlimit:10;}
	.st25{fill:url(#SVGID_34_);}
	.st26{fill:url(#SVGID_35_);}
	.st27{fill:url(#SVGID_36_);}
	.st28{opacity:0.94;fill:#FFFFFF;}
	.st29{fill:none;stroke:#FFFFFF;stroke-linecap:round;stroke-miterlimit:10;}
	.st30{fill:none;stroke:#FFFFFF;stroke-miterlimit:10;}
	.st31{fill:#A8D8BB;stroke:#212323;stroke-width:0.1741;stroke-miterlimit:10;}
	.st32{clip-path:url(#SVGID_58_);}
	.st33{fill:url(#SVGID_59_);stroke:#388E6C;stroke-width:0.2544;stroke-miterlimit:10;}
	.st34{fill:url(#SVGID_60_);stroke:#388E6C;stroke-width:0.2544;stroke-miterlimit:10;}
	.st35{fill:url(#SVGID_61_);stroke:#388E6C;stroke-width:0.2544;stroke-miterlimit:10;}
	.st36{fill:url(#SVGID_62_);stroke:#388E6C;stroke-width:0.2544;stroke-miterlimit:10;}
	.st37{fill:url(#SVGID_63_);stroke:#388E6C;stroke-width:0.2544;stroke-miterlimit:10;}
	.st38{fill:url(#SVGID_64_);stroke:#388E6C;stroke-width:0.2544;stroke-miterlimit:10;}
	.st39{fill:url(#SVGID_65_);stroke:#388E6C;stroke-width:0.2544;stroke-miterlimit:10;}
	.st40{fill:url(#SVGID_66_);stroke:#388E6C;stroke-width:0.2544;stroke-miterlimit:10;}
	.st41{fill:url(#SVGID_67_);stroke:#388E6C;stroke-width:0.2544;stroke-miterlimit:10;}
	.st42{fill:url(#SVGID_68_);stroke:#388E6C;stroke-width:0.2544;stroke-miterlimit:10;}
	.st43{fill:url(#SVGID_69_);stroke:#388E6C;stroke-width:0.2544;stroke-miterlimit:10;}
	.st44{fill:url(#SVGID_70_);stroke:#388E6C;stroke-width:0.2544;stroke-miterlimit:10;}
	.st45{fill:url(#SVGID_71_);stroke:#388E6C;stroke-width:0.2544;stroke-miterlimit:10;}
	.st46{fill:url(#SVGID_72_);stroke:#388E6C;stroke-width:0.2544;stroke-miterlimit:10;}
	.st47{fill:url(#SVGID_73_);stroke:#388E6C;stroke-width:0.2544;stroke-miterlimit:10;}
	.st48{fill:url(#SVGID_74_);stroke:#388E6C;stroke-width:0.2544;stroke-miterlimit:10;}
	.st49{fill:url(#SVGID_75_);stroke:#388E6C;stroke-width:0.2544;stroke-miterlimit:10;}
	.st50{fill:url(#SVGID_76_);stroke:#388E6C;stroke-width:0.2544;stroke-miterlimit:10;}
	.st51{fill:url(#SVGID_77_);stroke:#388E6C;stroke-width:0.1741;stroke-miterlimit:10;}
	.st52{fill:url(#SVGID_78_);}
	.st53{fill:#286149;}
	.st54{fill:none;stroke:#286149;stroke-width:1.0989;stroke-linecap:round;stroke-miterlimit:10;}
	.st55{clip-path:url(#SVGID_82_);}
	.st56{fill:url(#SVGID_83_);stroke:#388E6C;stroke-width:0.2544;stroke-miterlimit:10;}
	.st57{fill:url(#SVGID_84_);stroke:#388E6C;stroke-width:0.2544;stroke-miterlimit:10;}
	.st58{fill:url(#SVGID_85_);stroke:#388E6C;stroke-width:0.2544;stroke-miterlimit:10;}
	.st59{fill:url(#SVGID_86_);stroke:#388E6C;stroke-width:0.2544;stroke-miterlimit:10;}
	.st60{fill:url(#SVGID_87_);stroke:#388E6C;stroke-width:0.2544;stroke-miterlimit:10;}
	.st61{fill:url(#SVGID_88_);stroke:#388E6C;stroke-width:0.2544;stroke-miterlimit:10;}
	.st62{fill:url(#SVGID_89_);stroke:#388E6C;stroke-width:0.2544;stroke-miterlimit:10;}
	.st63{fill:url(#SVGID_90_);stroke:#388E6C;stroke-width:0.2544;stroke-miterlimit:10;}
	.st64{fill:url(#SVGID_91_);stroke:#388E6C;stroke-width:0.2544;stroke-miterlimit:10;}
	.st65{fill:url(#SVGID_92_);stroke:#388E6C;stroke-width:0.2544;stroke-miterlimit:10;}
	.st66{fill:url(#SVGID_93_);stroke:#388E6C;stroke-width:0.2544;stroke-miterlimit:10;}
	.st67{fill:url(#SVGID_94_);stroke:#388E6C;stroke-width:0.2544;stroke-miterlimit:10;}
	.st68{fill:url(#SVGID_95_);stroke:#388E6C;stroke-width:0.2544;stroke-miterlimit:10;}
	.st69{fill:url(#SVGID_96_);stroke:#388E6C;stroke-width:0.2544;stroke-miterlimit:10;}
	.st70{fill:url(#SVGID_97_);stroke:#388E6C;stroke-width:0.2544;stroke-miterlimit:10;}
	.st71{fill:url(#SVGID_98_);stroke:#388E6C;stroke-width:0.2544;stroke-miterlimit:10;}
	.st72{fill:url(#SVGID_99_);stroke:#388E6C;stroke-width:0.2544;stroke-miterlimit:10;}
	.st73{fill:url(#SVGID_100_);stroke:#388E6C;stroke-width:0.2544;stroke-miterlimit:10;}
	.st74{fill:url(#SVGID_101_);stroke:#388E6C;stroke-width:0.1741;stroke-miterlimit:10;}
	.st75{fill:url(#SVGID_102_);}
	.st76{clip-path:url(#SVGID_106_);}
	.st77{fill:url(#SVGID_107_);stroke:#388E6C;stroke-width:0.2544;stroke-miterlimit:10;}
	.st78{fill:url(#SVGID_108_);stroke:#388E6C;stroke-width:0.2544;stroke-miterlimit:10;}
	.st79{fill:url(#SVGID_109_);stroke:#388E6C;stroke-width:0.2544;stroke-miterlimit:10;}
	.st80{fill:url(#SVGID_110_);stroke:#388E6C;stroke-width:0.2544;stroke-miterlimit:10;}
	.st81{fill:url(#SVGID_111_);stroke:#388E6C;stroke-width:0.2544;stroke-miterlimit:10;}
	.st82{fill:url(#SVGID_112_);stroke:#388E6C;stroke-width:0.2544;stroke-miterlimit:10;}
	.st83{fill:url(#SVGID_113_);stroke:#388E6C;stroke-width:0.2544;stroke-miterlimit:10;}
	.st84{fill:url(#SVGID_114_);stroke:#388E6C;stroke-width:0.2544;stroke-miterlimit:10;}
	.st85{fill:url(#SVGID_115_);stroke:#388E6C;stroke-width:0.2544;stroke-miterlimit:10;}
	.st86{fill:url(#SVGID_116_);stroke:#388E6C;stroke-width:0.2544;stroke-miterlimit:10;}
	.st87{fill:url(#SVGID_117_);stroke:#388E6C;stroke-width:0.2544;stroke-miterlimit:10;}
	.st88{fill:url(#SVGID_118_);stroke:#388E6C;stroke-width:0.2544;stroke-miterlimit:10;}
	.st89{fill:url(#SVGID_119_);stroke:#388E6C;stroke-width:0.2544;stroke-miterlimit:10;}
	.st90{fill:url(#SVGID_120_);stroke:#388E6C;stroke-width:0.2544;stroke-miterlimit:10;}
	.st91{fill:url(#SVGID_121_);stroke:#388E6C;stroke-width:0.2544;stroke-miterlimit:10;}
	.st92{fill:url(#SVGID_122_);stroke:#388E6C;stroke-width:0.2544;stroke-miterlimit:10;}
	.st93{fill:url(#SVGID_123_);stroke:#388E6C;stroke-width:0.2544;stroke-miterlimit:10;}
	.st94{fill:url(#SVGID_124_);stroke:#388E6C;stroke-width:0.2544;stroke-miterlimit:10;}
	.st95{fill:url(#SVGID_125_);stroke:#388E6C;stroke-width:0.1741;stroke-miterlimit:10;}
	.st96{fill:url(#SVGID_126_);}
	.st97{opacity:0.5;fill:#138BCE;}
	.st98{opacity:9.000000e-02;fill:#FF5562;}
</style>
<g id="video">
</g>
<g id="channel">
	<path class="st4" d="M22.6,11.4L22.6,11.4l-6.3-1.9l0.8-5.5c0.2-1.8-0.7-3.3-2.4-3.8c-0.9-0.3-2.9,0.1-3.6,0.9
		C11,1.1,11,1.2,10.9,1.3c-0.2,0.3-0.3,0.5-0.4,0.9L9.2,6.7c0,0,0,0,0,0c0,0,0,0,0,0L7.1,6.6c-0.1,0-0.1,0-0.1,0L6,7.4V5.2
		C6,5.1,6,5.1,5.9,5L2.7,3.9C1.9,3.6,0.7,4.3,0.3,5C0.1,5.1,0,5.3,0,5.6v16.7c0,0.2,0.1,0.4,0.3,0.5L4.5,24c0,0,0.1,0,0.1,0
		c0.1,0,0.2,0,0.3-0.1c0,0,0.1-0.1,0.1-0.1c0.1,0,0.1-0.1,0.1-0.1l0.4-0.6c0.1,0.1,0.1,0.1,0.2,0.1l13.4,4.2
		c0.2,0.1,0.5,0.1,0.7,0.1c0.2,0,0.4,0,0.6-0.1c0.2,0,0.5-0.1,0.7-0.2c0.7-0.3,1.2-0.9,1.5-1.8l2.4-9.8C25.3,14,24.2,11.9,22.6,11.4
		z M4.1,22.8l-1-0.3l0,0L1,21.9v-7.2V5.8l3.2,1V22.8z M23,16.8l-2,8.6c-0.1,0.5-0.3,0.8-0.6,1c-0.3,0.2-0.6,0.2-1,0.1l-6.3-1.9l0,0
		l-6.8-2.1v-6.5V8.5l1.5,0.1c1.1,0.1,2-0.6,2.3-1.7l0.2-0.6l0,0l0.4-1.5l0.7-2.4c0.1-0.5,0.4-0.8,0.7-1c0.3-0.2,0.7-0.2,1-0.1
		c1.3,0.4,2.3,2.2,2.1,3.7l-0.8,5.7c0,0.2,0.1,0.5,0.3,0.5l6.4,2C22.4,13.6,23.3,15.4,23,16.8z"/>
</g>
<g id="comments_x2F_description">
</g>
<g id="nav">
</g>
<g id="guides">
</g>
</svg>
