<svg xmlns="http://www.w3.org/2000/svg" viewBox="0 0 25 30.15"><defs><style>.cls-1{fill:#ff5562;}</style></defs><title>fill red like</title><g id="channel"><polygon class="cls-1" points="0.49 8.49 0.49 17.56 3.12 18.44 3.12 18.44 3.67 18.63 3.67 2.81 0.49 1.75 0.49 8.49"/><path class="cls-1" d="M0,.63a.33.33,0,0,1,.17,0L4.29,2a.46.46,0,0,1,.32.44V19.2L5.41,18V1.22L2.25.12A2.2,2.2,0,0,0,0,.63Z"/><path class="cls-1" d="M25,20l-2-9.79a3.8,3.8,0,0,0-2.24-2.82L7.29,2.9l-1,.92L19.56,8.26a4.3,4.3,0,0,1,2.55,3.18l2,9.79a3.36,3.36,0,0,1-.15,2A4.2,4.2,0,0,0,25,20Z"/><path class="cls-1" d="M21.18,11.62a3.35,3.35,0,0,0-1.92-2.46L6.44,4.87V18.48l1.83,1a4.42,4.42,0,0,1,2,2.77l1.26,5.29a3.74,3.74,0,0,0,1.65,2.33h0a1.51,1.51,0,0,0,.18.09h0l.19.08a1.27,1.27,0,0,0,1.26-.18A2.08,2.08,0,0,0,15.36,28l-.8-6.12a.48.48,0,0,1,.17-.42.47.47,0,0,1,.45-.09l6.43,2.15a1.11,1.11,0,0,0,1.14-.17,2,2,0,0,0,.42-1.91Z"/><path class="cls-1" d="M16.66,22.83l-1.06-.35.7,5.37a3.5,3.5,0,0,1-.19,1.79,4.38,4.38,0,0,0,1-3.05Z"/></g></svg>