<?xml version="1.0" encoding="utf-8"?>
<!-- Generator: Adobe Illustrator 21.1.0, SVG Export Plug-In . SVG Version: 6.00 Build 0)  -->
<svg version="1.1" xmlns="http://www.w3.org/2000/svg" xmlns:xlink="http://www.w3.org/1999/xlink" x="0px" y="0px"
	 viewBox="0 0 19.7 25" style="enable-background:new 0 0 19.7 25;" xml:space="preserve">
<style type="text/css">
	.st0{fill:#212323;}
	.st1{fill:#383838;}
	.st2{fill:#F7F7F7;}
	.st3{fill:#888888;}
	.st4{fill:#4EBD94;}
	.st5{fill:#FFFFFF;}
	.st6{fill:#429976;}
	.st7{fill:#565656;}
	.st8{fill:#DDDDDD;}
	.st9{fill:none;stroke:#888888;stroke-miterlimit:10;}
	.st10{fill:none;stroke:#4EBD94;stroke-miterlimit:10;}
	.st11{fill:#FF5562;}
	.st12{fill:#FFFFFF;stroke:#4EBD94;stroke-miterlimit:10;}
	.st13{fill:#B7B7B7;}
	.st14{fill:#B3B3B3;}
	.st15{fill:none;stroke:#DDDDDD;stroke-miterlimit:10;}
	.st16{fill:#FFFFFF;stroke:#DDDDDD;stroke-width:0.9456;stroke-miterlimit:10;}
	.st17{fill:none;stroke:#565656;stroke-width:0.8839;stroke-miterlimit:10;}
	.st18{fill:#60D8A7;}
	.st19{fill:#358666;}
	.st20{fill:url(#SVGID_33_);}
	.st21{fill:#CD8A2A;}
	.st22{fill:none;stroke:#565656;stroke-miterlimit:10;}
	.st23{fill:#212323;stroke:#888888;stroke-width:0.9456;stroke-miterlimit:10;}
	.st24{fill:none;stroke:#F7F7F7;stroke-width:0.8839;stroke-miterlimit:10;}
	.st25{fill:url(#SVGID_34_);}
	.st26{fill:url(#SVGID_35_);}
	.st27{fill:url(#SVGID_36_);}
	.st28{opacity:0.94;fill:#FFFFFF;}
	.st29{fill:none;stroke:#FFFFFF;stroke-linecap:round;stroke-miterlimit:10;}
	.st30{fill:none;stroke:#FFFFFF;stroke-miterlimit:10;}
	.st31{fill:#A8D8BB;stroke:#212323;stroke-width:0.1741;stroke-miterlimit:10;}
	.st32{clip-path:url(#SVGID_58_);}
	.st33{fill:url(#SVGID_59_);stroke:#388E6C;stroke-width:0.2544;stroke-miterlimit:10;}
	.st34{fill:url(#SVGID_60_);stroke:#388E6C;stroke-width:0.2544;stroke-miterlimit:10;}
	.st35{fill:url(#SVGID_61_);stroke:#388E6C;stroke-width:0.2544;stroke-miterlimit:10;}
	.st36{fill:url(#SVGID_62_);stroke:#388E6C;stroke-width:0.2544;stroke-miterlimit:10;}
	.st37{fill:url(#SVGID_63_);stroke:#388E6C;stroke-width:0.2544;stroke-miterlimit:10;}
	.st38{fill:url(#SVGID_64_);stroke:#388E6C;stroke-width:0.2544;stroke-miterlimit:10;}
	.st39{fill:url(#SVGID_65_);stroke:#388E6C;stroke-width:0.2544;stroke-miterlimit:10;}
	.st40{fill:url(#SVGID_66_);stroke:#388E6C;stroke-width:0.2544;stroke-miterlimit:10;}
	.st41{fill:url(#SVGID_67_);stroke:#388E6C;stroke-width:0.2544;stroke-miterlimit:10;}
	.st42{fill:url(#SVGID_68_);stroke:#388E6C;stroke-width:0.2544;stroke-miterlimit:10;}
	.st43{fill:url(#SVGID_69_);stroke:#388E6C;stroke-width:0.2544;stroke-miterlimit:10;}
	.st44{fill:url(#SVGID_70_);stroke:#388E6C;stroke-width:0.2544;stroke-miterlimit:10;}
	.st45{fill:url(#SVGID_71_);stroke:#388E6C;stroke-width:0.2544;stroke-miterlimit:10;}
	.st46{fill:url(#SVGID_72_);stroke:#388E6C;stroke-width:0.2544;stroke-miterlimit:10;}
	.st47{fill:url(#SVGID_73_);stroke:#388E6C;stroke-width:0.2544;stroke-miterlimit:10;}
	.st48{fill:url(#SVGID_74_);stroke:#388E6C;stroke-width:0.2544;stroke-miterlimit:10;}
	.st49{fill:url(#SVGID_75_);stroke:#388E6C;stroke-width:0.2544;stroke-miterlimit:10;}
	.st50{fill:url(#SVGID_76_);stroke:#388E6C;stroke-width:0.2544;stroke-miterlimit:10;}
	.st51{fill:url(#SVGID_77_);stroke:#388E6C;stroke-width:0.1741;stroke-miterlimit:10;}
	.st52{fill:url(#SVGID_78_);}
	.st53{fill:#286149;}
	.st54{fill:none;stroke:#286149;stroke-width:1.0989;stroke-linecap:round;stroke-miterlimit:10;}
	.st55{clip-path:url(#SVGID_82_);}
	.st56{fill:url(#SVGID_83_);stroke:#388E6C;stroke-width:0.2544;stroke-miterlimit:10;}
	.st57{fill:url(#SVGID_84_);stroke:#388E6C;stroke-width:0.2544;stroke-miterlimit:10;}
	.st58{fill:url(#SVGID_85_);stroke:#388E6C;stroke-width:0.2544;stroke-miterlimit:10;}
	.st59{fill:url(#SVGID_86_);stroke:#388E6C;stroke-width:0.2544;stroke-miterlimit:10;}
	.st60{fill:url(#SVGID_87_);stroke:#388E6C;stroke-width:0.2544;stroke-miterlimit:10;}
	.st61{fill:url(#SVGID_88_);stroke:#388E6C;stroke-width:0.2544;stroke-miterlimit:10;}
	.st62{fill:url(#SVGID_89_);stroke:#388E6C;stroke-width:0.2544;stroke-miterlimit:10;}
	.st63{fill:url(#SVGID_90_);stroke:#388E6C;stroke-width:0.2544;stroke-miterlimit:10;}
	.st64{fill:url(#SVGID_91_);stroke:#388E6C;stroke-width:0.2544;stroke-miterlimit:10;}
	.st65{fill:url(#SVGID_92_);stroke:#388E6C;stroke-width:0.2544;stroke-miterlimit:10;}
	.st66{fill:url(#SVGID_93_);stroke:#388E6C;stroke-width:0.2544;stroke-miterlimit:10;}
	.st67{fill:url(#SVGID_94_);stroke:#388E6C;stroke-width:0.2544;stroke-miterlimit:10;}
	.st68{fill:url(#SVGID_95_);stroke:#388E6C;stroke-width:0.2544;stroke-miterlimit:10;}
	.st69{fill:url(#SVGID_96_);stroke:#388E6C;stroke-width:0.2544;stroke-miterlimit:10;}
	.st70{fill:url(#SVGID_97_);stroke:#388E6C;stroke-width:0.2544;stroke-miterlimit:10;}
	.st71{fill:url(#SVGID_98_);stroke:#388E6C;stroke-width:0.2544;stroke-miterlimit:10;}
	.st72{fill:url(#SVGID_99_);stroke:#388E6C;stroke-width:0.2544;stroke-miterlimit:10;}
	.st73{fill:url(#SVGID_100_);stroke:#388E6C;stroke-width:0.2544;stroke-miterlimit:10;}
	.st74{fill:url(#SVGID_101_);stroke:#388E6C;stroke-width:0.1741;stroke-miterlimit:10;}
	.st75{fill:url(#SVGID_102_);}
	.st76{clip-path:url(#SVGID_106_);}
	.st77{fill:url(#SVGID_107_);stroke:#388E6C;stroke-width:0.2544;stroke-miterlimit:10;}
	.st78{fill:url(#SVGID_108_);stroke:#388E6C;stroke-width:0.2544;stroke-miterlimit:10;}
	.st79{fill:url(#SVGID_109_);stroke:#388E6C;stroke-width:0.2544;stroke-miterlimit:10;}
	.st80{fill:url(#SVGID_110_);stroke:#388E6C;stroke-width:0.2544;stroke-miterlimit:10;}
	.st81{fill:url(#SVGID_111_);stroke:#388E6C;stroke-width:0.2544;stroke-miterlimit:10;}
	.st82{fill:url(#SVGID_112_);stroke:#388E6C;stroke-width:0.2544;stroke-miterlimit:10;}
	.st83{fill:url(#SVGID_113_);stroke:#388E6C;stroke-width:0.2544;stroke-miterlimit:10;}
	.st84{fill:url(#SVGID_114_);stroke:#388E6C;stroke-width:0.2544;stroke-miterlimit:10;}
	.st85{fill:url(#SVGID_115_);stroke:#388E6C;stroke-width:0.2544;stroke-miterlimit:10;}
	.st86{fill:url(#SVGID_116_);stroke:#388E6C;stroke-width:0.2544;stroke-miterlimit:10;}
	.st87{fill:url(#SVGID_117_);stroke:#388E6C;stroke-width:0.2544;stroke-miterlimit:10;}
	.st88{fill:url(#SVGID_118_);stroke:#388E6C;stroke-width:0.2544;stroke-miterlimit:10;}
	.st89{fill:url(#SVGID_119_);stroke:#388E6C;stroke-width:0.2544;stroke-miterlimit:10;}
	.st90{fill:url(#SVGID_120_);stroke:#388E6C;stroke-width:0.2544;stroke-miterlimit:10;}
	.st91{fill:url(#SVGID_121_);stroke:#388E6C;stroke-width:0.2544;stroke-miterlimit:10;}
	.st92{fill:url(#SVGID_122_);stroke:#388E6C;stroke-width:0.2544;stroke-miterlimit:10;}
	.st93{fill:url(#SVGID_123_);stroke:#388E6C;stroke-width:0.2544;stroke-miterlimit:10;}
	.st94{fill:url(#SVGID_124_);stroke:#388E6C;stroke-width:0.2544;stroke-miterlimit:10;}
	.st95{fill:url(#SVGID_125_);stroke:#388E6C;stroke-width:0.1741;stroke-miterlimit:10;}
	.st96{fill:url(#SVGID_126_);}
	.st97{opacity:0.5;fill:#138BCE;}
	.st98{opacity:9.000000e-02;fill:#FF5562;}
</style>
<g id="video">
</g>
<g id="channel">
</g>
<g id="comments_x2F_description">
</g>
<g id="nav">
	<path class="st4" d="M19.5,18.7l-2.1-4.2c-0.2-0.3-0.3-0.7-0.3-1v-2.4c0-2.7-1.7-5.6-4.1-7.4c0-0.1,0.1-0.3,0.1-0.5
		c0-1.4-0.7-2.3-2.4-3.1c-0.9-0.4-2-0.1-2.7,0.3C7.7,0.8,7.4,1.1,7.2,1.4C6.9,1.8,6.7,2.2,6.7,2.7C6.3,2.9,5.9,3.1,5.5,3.3
		C5.3,3.5,5.1,3.7,4.9,3.9C4.8,3.9,4.7,4,4.6,4.1C3.4,4.9,2.7,6.3,2.7,8v2.4c0,0.3-0.1,0.5-0.2,0.6l-2.1,2.6C0,14.2-0.1,15,0.1,15.9
		c0.4,1.3,1.4,2.4,2.6,2.8l2.6,1c0.1,2.1,1.8,4.3,3.8,5c0.5,0.2,0.9,0.3,1.4,0.3c0.6,0,1.2-0.2,1.6-0.5c0.6-0.4,1-1.1,1.1-1.9
		l2.4,0.9c0.3,0.1,0.7,0.2,1,0.2c0.5,0,1-0.2,1.3-0.5c0.2-0.1,0.5-0.3,0.7-0.6C19.5,21.7,20.1,20,19.5,18.7z M8,1.9
		c0.2-0.1,0.4-0.2,0.6-0.2c0.2,0,0.4,0,0.6,0.1c1,0.4,1.9,1.6,1.9,2.6c0,0,0,0.1,0,0.1C10.6,4.2,10,3.9,9.5,3.7
		C8.8,3.5,8.2,3.4,7.6,3.3c0-0.2-0.1-0.3-0.1-0.5C7.6,2.4,7.7,2.1,8,1.9z M11.7,23.8c-0.6,0.4-1.4,0.4-2.2,0.1
		c-1.6-0.6-3-2.3-3.2-3.9l6.2,2.3C12.4,23,12.1,23.5,11.7,23.8z M17.5,22.5c-0.3,0.4-0.9,0.4-1.5,0.2l-1.5-0.6l0,0l-0.7-0.3
		l-1.4-0.5l0,0l-1.8-0.7L3,17.9c-0.9-0.3-1.8-1.3-2-2.3c-0.2-0.6-0.1-1.1,0.2-1.5l0.6-0.8l0,0l1.5-1.9c0.2-0.3,0.3-0.6,0.4-1l0,0
		c0,0,0-0.1,0-0.1V8.2V8c0-1.4,0.5-2.6,1.5-3.3c0.6-0.4,1.3-0.6,2.1-0.6c0.6,0,1.3,0.1,2,0.4c3.3,1.2,5.9,4.8,5.9,8.1V15
		c0,0.4,0.1,0.9,0.3,1.3l2.1,4.2v0C17.9,21.3,17.9,22.1,17.5,22.5z"/>
</g>
<g id="guides">
</g>
</svg>
