<svg xmlns="http://www.w3.org/2000/svg" viewBox="0 0 32.88 29.58"><defs><style>.cls-1{fill:#fff;}</style></defs><title>white comment</title><g id="comments_description" data-name="comments/description"><path class="cls-1" d="M28.29,5.58,8.7.3a8.73,8.73,0,0,0-6.51.75A3.59,3.59,0,0,0,1.08,2.13a3.46,3.46,0,0,1,.57-.51,3.08,3.08,0,0,1,1.87-.54,3.08,3.08,0,0,0-1.7.54C.18,2.76,0,5.28,0,6.3V16.91c0,2.23,1.58,3.88,4.71,4.93l.17.05,5,7.31a.83.83,0,0,0,.62.36h.09a.62.62,0,0,0,.18,0h0a.83.83,0,0,0,.46-.31h0l1.23-1a.64.64,0,0,0,.25-.43l.44-3.37,12.72,3.9h0c1.43.41,2.9.68,4-.13l.07-.06c2.84-1.07,2.87-4,2.89-7.9V10.33C32.88,8,31.38,6.46,28.29,5.58Zm1.14,19.2c0,1.09-.19,1.8-.54,2.06s-1.57.12-2.47-.14l-15-4.59a.87.87,0,0,0-.72.11.82.82,0,0,0-.38.62L10,26.31,6.12,20.67a.86.86,0,0,0-.46-.33l-.43-.13c-3.15-1.05-3.52-2.39-3.52-3.3V6.3C1.71,5.08,2,3.58,2.8,3A2,2,0,0,1,4.67,3l0,0L26,9.18c3.08.88,3.48,2.22,3.48,3.28Z"/><circle class="cls-1" cx="6.5" cy="13.66" r="1.71"/><circle class="cls-1" cx="14.37" cy="15.54" r="1.71"/><circle class="cls-1" cx="22.59" cy="17.94" r="1.71"/></g></svg>